<svg width="752" height="261" viewBox="0 0 752 261" fill="none" xmlns="http://www.w3.org/2000/svg">
<rect x="-1" y="-2" width="753" height="227" fill="#065DA7"/>
<circle cx="376.264" cy="112.264" r="60" transform="rotate(-20.5835 376.264 112.264)" fill="white"/>
<circle cx="376.264" cy="112.264" r="60" transform="rotate(-20.5835 376.264 112.264)" fill="#065DA7" fill-opacity="0.08"/>
<g clip-path="url(#clip0_3263_665)">
<path d="M361.985 74.2325C354.463 77.0573 347.947 82.0492 343.263 88.577C338.578 95.1047 335.934 102.875 335.665 110.905C335.396 118.936 337.515 126.866 341.753 133.692C345.991 140.518 352.158 145.934 359.474 149.256C366.791 152.577 374.927 153.654 382.856 152.351C390.784 151.048 398.148 147.423 404.017 141.935C409.885 136.447 413.994 129.341 415.824 121.518C417.655 113.694 417.124 105.503 414.299 97.9814C410.501 87.9021 402.861 79.7408 393.053 75.2885C383.245 70.8362 372.072 70.4564 361.985 74.2325ZM390.446 99.2867L377.658 127.456C377.489 127.83 377.247 128.167 376.947 128.447C376.647 128.728 376.295 128.947 375.91 129.091C375.526 129.236 375.117 129.303 374.706 129.289C374.296 129.275 373.892 129.18 373.518 129.01L361.446 123.53C360.691 123.187 360.103 122.558 359.811 121.782C359.52 121.006 359.549 120.145 359.891 119.39C360.234 118.635 360.863 118.047 361.639 117.756C362.416 117.464 363.276 117.493 364.031 117.836L373.258 122.027L384.752 96.7017C384.921 96.3278 385.163 95.991 385.463 95.7106C385.763 95.4301 386.115 95.2114 386.5 95.0671C386.884 94.9227 387.293 94.8555 387.703 94.8692C388.114 94.8829 388.517 94.9774 388.891 95.1471C389.265 95.3168 389.602 95.5585 389.882 95.8584C390.163 96.1583 390.382 96.5105 390.526 96.8949C390.67 97.2793 390.738 97.6884 390.724 98.0988C390.71 98.5091 390.616 98.9128 390.446 99.2867Z" fill="#065DA7"/>
</g>
<circle cx="705.5" cy="183.5" r="77.5" fill="white" fill-opacity="0.2"/>
<circle cx="673.5" cy="175.5" r="77.5" fill="white" fill-opacity="0.2"/>
<defs>
<clipPath id="clip0_3263_665">
<rect width="100" height="100" fill="white" transform="translate(311.879 83.0347) rotate(-20.5835)"/>
</clipPath>
</defs>
</svg>
