<svg width="142" height="79" viewBox="0 0 142 79" fill="none" xmlns="http://www.w3.org/2000/svg">
<path d="M44.4819 52.1434L52.7368 37.7786C53.509 36.434 52.5144 34.7754 50.934 34.7754H34.2834C32.6965 34.7754 31.7019 36.4471 32.4871 37.7917L40.8828 52.1565C41.6779 53.5207 43.6966 53.5109 44.4819 52.1434Z" fill="#DC5695"/>
<path d="M22.6128 53.174C21.2157 53.174 19.9462 52.8861 18.8043 52.3104C17.6624 51.7346 16.779 50.9036 16.1606 49.8175L16.5925 49.1207V52.7782H13V27.6045H16.7594V38.5115L16.1606 37.6478C16.8248 36.6271 17.7115 35.8289 18.8207 35.2531C19.9299 34.6773 21.1928 34.3894 22.6128 34.3894C24.3207 34.3894 25.8553 34.7984 27.2196 35.6195C28.584 36.4406 29.6572 37.5595 30.4457 38.9793C31.231 40.3991 31.6269 41.9955 31.6269 43.7686C31.6269 45.5418 31.2342 47.1382 30.4457 48.558C29.6572 49.9778 28.5873 51.1032 27.236 51.9341C25.8847 52.7651 24.3436 53.1806 22.6128 53.1806V53.174ZM22.2464 49.6834C23.3097 49.6834 24.252 49.4282 25.0733 48.9179C25.8945 48.4075 26.5424 47.7042 27.02 46.8078C27.4977 45.9114 27.7366 44.8973 27.7366 43.7654C27.7366 42.6335 27.4977 41.6259 27.02 40.7393C26.5424 39.8527 25.8945 39.1559 25.0733 38.6456C24.252 38.1352 23.3097 37.8801 22.2464 37.8801C21.183 37.8801 20.2669 38.1352 19.4358 38.6456C18.6047 39.1559 17.9504 39.8527 17.4727 40.7393C16.995 41.6259 16.7561 42.6335 16.7561 43.7654C16.7561 44.8973 16.995 45.9114 17.4727 46.8078C17.9504 47.7042 18.6047 48.4108 19.4358 48.9179C20.2669 49.4282 21.2026 49.6834 22.2464 49.6834Z" fill="#6B3B90"/>
<path d="M54.7734 52.7754V34.7858H58.366V38.3092L57.9341 37.8446C58.3758 36.7127 59.0858 35.8556 60.0641 35.2667C61.0391 34.6811 62.1712 34.3867 63.457 34.3867C64.7429 34.3867 65.9633 34.6746 66.9809 35.2504C68.0017 35.8261 68.8 36.6244 69.3759 37.6451C69.9517 38.6658 70.2397 39.8402 70.2397 41.1684V52.7754H66.5162V42.1662C66.5162 41.2567 66.3494 40.4879 66.0189 39.8566C65.6852 39.2252 65.214 38.7377 64.6055 38.3942C63.9969 38.0507 63.3033 37.8773 62.5278 37.8773C61.7524 37.8773 61.0587 38.0507 60.4502 38.3942C59.8416 38.7377 59.3704 39.2317 59.0367 39.8729C58.703 40.5174 58.5394 41.2796 58.5394 42.1662V52.7754H54.78H54.7734Z" fill="#6B3B90"/>
<path d="M82.5741 53.1737C80.8433 53.1737 79.299 52.7582 77.9346 51.9273C76.5702 51.0964 75.4937 49.971 74.7085 48.5512C73.92 47.1314 73.5273 45.5382 73.5273 43.7618C73.5273 41.9854 73.9265 40.3922 74.7249 38.9724C75.5232 37.5526 76.5996 36.4338 77.9509 35.6127C79.3022 34.7915 80.8335 34.3826 82.5414 34.3826C83.981 34.3826 85.2571 34.6705 86.3662 35.2463C87.4754 35.822 88.349 36.6203 88.9936 37.641L88.4275 38.5046V27.5977H92.1509V52.7713H88.5911V49.1139L89.023 49.8107C88.4014 50.8968 87.5147 51.7278 86.363 52.3035C85.2113 52.8793 83.945 53.1672 82.5708 53.1672L82.5741 53.1737ZM82.9406 49.6831C83.981 49.6831 84.9201 49.4279 85.7511 48.9176C86.5822 48.4072 87.2366 47.7039 87.7143 46.8075C88.192 45.9111 88.4308 44.897 88.4308 43.7651C88.4308 42.6332 88.192 41.6256 87.7143 40.739C87.2366 39.8524 86.5822 39.1556 85.7511 38.6453C84.9201 38.1349 83.9843 37.8798 82.9406 37.8798C81.8968 37.8798 80.9545 38.1349 80.1137 38.6453C79.2695 39.1556 78.6184 39.8524 78.1505 40.739C77.6859 41.6256 77.4536 42.6332 77.4536 43.7651C77.4536 44.897 77.6859 45.9111 78.1505 46.8075C78.6151 47.7039 79.2662 48.4105 80.0973 48.9176C80.9284 49.4279 81.8772 49.6831 82.9406 49.6831Z" fill="#6B3B90"/>
<path d="M96.543 52.7752V27.6016H100.302V52.7752H96.543Z" fill="#6B3B90"/>
<path d="M113.138 53.1746C111.342 53.1746 109.752 52.7591 108.364 51.9281C106.977 51.0972 105.897 49.9653 105.122 48.5357C104.346 47.1061 103.957 45.503 103.957 43.7299C103.957 41.9568 104.35 40.3047 105.138 38.9078C105.923 37.5109 106.984 36.4085 108.315 35.6004C109.647 34.7924 111.152 34.3867 112.837 34.3867C114.188 34.3867 115.399 34.619 116.462 35.0835C117.526 35.5481 118.425 36.186 119.155 36.9941C119.888 37.8021 120.447 38.7279 120.833 39.7715C121.22 40.8151 121.416 41.9208 121.416 43.0953C121.416 43.3832 121.406 43.6841 121.383 43.9916C121.36 44.3024 121.318 44.5903 121.249 44.8553H106.915V41.8619H119.119L117.323 43.2261C117.545 42.14 117.473 41.1717 117.107 40.3178C116.74 39.464 116.187 38.7868 115.445 38.2895C114.702 37.7923 113.832 37.5404 112.834 37.5404C111.836 37.5404 110.949 37.789 110.174 38.2895C109.398 38.7868 108.799 39.4967 108.377 40.4192C107.955 41.3385 107.788 42.4541 107.877 43.7626C107.766 44.9829 107.939 46.0461 108.394 46.9556C108.849 47.865 109.49 48.5749 110.324 49.0853C111.155 49.5956 112.104 49.8508 113.167 49.8508C114.231 49.8508 115.18 49.6087 115.945 49.118C116.711 48.6305 117.313 47.9992 117.758 47.2238L120.817 48.7189C120.464 49.5629 119.914 50.3219 119.171 50.9958C118.429 51.673 117.542 52.2029 116.511 52.5922C115.481 52.9815 114.355 53.1746 113.135 53.1746H113.138Z" fill="#6B3B90"/>
<path d="M127.208 53.1739C129.098 53.1739 130.63 51.6419 130.63 49.752C130.63 47.8621 129.098 46.3301 127.208 46.3301C125.317 46.3301 123.785 47.8621 123.785 49.752C123.785 51.6419 125.317 53.1739 127.208 53.1739Z" fill="#DA5696"/>
<path d="M42.6099 44.7237C44.5 44.7237 46.0323 43.1917 46.0323 41.3018C46.0323 39.4119 44.5 37.8799 42.6099 37.8799C40.7198 37.8799 39.1875 39.4119 39.1875 41.3018C39.1875 43.1917 40.7198 44.7237 42.6099 44.7237Z" fill="white"/>
</svg>
