<svg width="96" height="54" viewBox="0 0 96 54" fill="none" xmlns="http://www.w3.org/2000/svg">
<path d="M30.0719 35.7662L35.6527 26.0547C36.1747 25.1457 35.5023 24.0244 34.4339 24.0244H23.1771C22.1043 24.0244 21.4319 25.1546 21.9627 26.0636L27.6387 35.775C28.1762 36.6973 29.541 36.6907 30.0719 35.7662Z" fill="#A3A4A5"/>
<path d="M15.2879 36.4632C14.3433 36.4632 13.4851 36.2686 12.7131 35.8793C11.9411 35.4901 11.3439 34.9283 10.9258 34.194L11.2178 33.7229V36.1956H8.78906V19.1768H11.3306V26.5505L10.9258 25.9666C11.3749 25.2766 11.9743 24.7369 12.7242 24.3477C13.474 23.9584 14.3279 23.7638 15.2879 23.7638C16.4425 23.7638 17.4799 24.0402 18.4023 24.5954C19.3247 25.1505 20.0503 25.9069 20.5833 26.8667C21.1142 27.8266 21.3819 28.9059 21.3819 30.1046C21.3819 31.3034 21.1164 32.3827 20.5833 33.3425C20.0503 34.3024 19.3269 35.0632 18.4134 35.625C17.4998 36.1867 16.458 36.4676 15.2879 36.4676V36.4632ZM15.0401 34.1033C15.759 34.1033 16.3961 33.9308 16.9513 33.5858C17.5065 33.2408 17.9445 32.7653 18.2674 32.1593C18.5904 31.5533 18.7518 30.8677 18.7518 30.1024C18.7518 29.3372 18.5904 28.656 18.2674 28.0566C17.9445 27.4573 17.5065 26.9862 16.9513 26.6412C16.3961 26.2961 15.759 26.1236 15.0401 26.1236C14.3212 26.1236 13.7019 26.2961 13.14 26.6412C12.5782 26.9862 12.1358 27.4573 11.8128 28.0566C11.4899 28.656 11.3284 29.3372 11.3284 30.1024C11.3284 30.8677 11.4899 31.5533 11.8128 32.1593C12.1358 32.7653 12.5782 33.243 13.14 33.5858C13.7019 33.9308 14.3345 34.1033 15.0401 34.1033Z" fill="#A3A4A5"/>
<path d="M37.0293 36.1935V24.0315H39.4581V26.4135L39.1661 26.0995C39.4647 25.3342 39.9447 24.7548 40.6061 24.3567C41.2652 23.9608 42.0306 23.7617 42.8999 23.7617C43.7692 23.7617 44.5943 23.9563 45.2822 24.3456C45.9723 24.7349 46.5121 25.2745 46.9014 25.9645C47.2907 26.6546 47.4853 27.4486 47.4853 28.3465V36.1935H44.9681V29.0211C44.9681 28.4062 44.8553 27.8865 44.6319 27.4596C44.4063 27.0328 44.0877 26.7032 43.6763 26.471C43.2649 26.2388 42.7959 26.1216 42.2717 26.1216C41.7475 26.1216 41.2785 26.2388 40.8671 26.471C40.4557 26.7032 40.1371 27.0372 39.9115 27.4707C39.6859 27.9064 39.5753 28.4217 39.5753 29.0211V36.1935H37.0337H37.0293Z" fill="#A3A4A5"/>
<path d="M55.8251 36.4627C54.655 36.4627 53.6109 36.1819 52.6885 35.6201C51.7661 35.0583 51.0384 34.2975 50.5075 33.3376C49.9744 32.3778 49.709 31.3007 49.709 30.0998C49.709 28.8988 49.9788 27.8217 50.5186 26.8619C51.0583 25.902 51.786 25.1456 52.6996 24.5905C53.6131 24.0353 54.6483 23.7589 55.803 23.7589C56.7763 23.7589 57.6389 23.9535 58.3888 24.3428C59.1387 24.732 59.7293 25.2717 60.165 25.9617L59.7823 26.5456V19.1719H62.2996V36.1907H59.8929V33.7181L60.1849 34.1891C59.7647 34.9234 59.1652 35.4852 58.3866 35.8744C57.608 36.2637 56.7519 36.4583 55.8229 36.4583L55.8251 36.4627ZM56.0729 34.1029C56.7763 34.1029 57.4111 33.9304 57.9729 33.5854C58.5348 33.2403 58.9772 32.7648 59.3001 32.1588C59.6231 31.5528 59.7846 30.8672 59.7846 30.102C59.7846 29.3367 59.6231 28.6555 59.3001 28.0562C58.9772 27.4568 58.5348 26.9857 57.9729 26.6407C57.4111 26.2957 56.7785 26.1232 56.0729 26.1232C55.3672 26.1232 54.7302 26.2957 54.1617 26.6407C53.591 26.9857 53.1508 27.4568 52.8345 28.0562C52.5204 28.6555 52.3634 29.3367 52.3634 30.102C52.3634 30.8672 52.5204 31.5528 52.8345 32.1588C53.1486 32.7648 53.5888 33.2425 54.1506 33.5854C54.7125 33.9304 55.354 34.1029 56.0729 34.1029Z" fill="#A3A4A5"/>
<path d="M65.2695 36.1927V19.1738H67.8111V36.1927H65.2695Z" fill="#A3A4A5"/>
<path d="M76.4881 36.4634C75.2737 36.4634 74.1987 36.1825 73.2608 35.6207C72.3229 35.0589 71.593 34.2937 71.0687 33.3272C70.5445 32.3607 70.2812 31.277 70.2812 30.0783C70.2812 28.8795 70.5467 27.7626 71.0798 26.8183C71.6106 25.8739 72.3273 25.1285 73.2276 24.5822C74.1279 24.036 75.1454 23.7617 76.2846 23.7617C77.1981 23.7617 78.0166 23.9187 78.7354 24.2328C79.4543 24.5469 80.0626 24.9781 80.5559 25.5244C81.0514 26.0707 81.4296 26.6966 81.6906 27.4021C81.9517 28.1077 82.0844 28.8552 82.0844 29.6492C82.0844 29.8438 82.0777 30.0473 82.0623 30.2552C82.0468 30.4653 82.018 30.6599 81.9716 30.8391H72.2809V28.8154H80.5316L79.3172 29.7377C79.4676 29.0034 79.4189 28.3487 79.1712 27.7715C78.9235 27.1942 78.5496 26.7364 78.0475 26.4002C77.5454 26.0641 76.957 25.8938 76.2824 25.8938C75.6077 25.8938 75.0083 26.0619 74.484 26.4002C73.9598 26.7364 73.555 27.2164 73.2696 27.84C72.9843 28.4615 72.8715 29.2157 72.9312 30.1004C72.856 30.9253 72.9732 31.6441 73.2807 32.259C73.5882 32.8738 74.0217 33.3537 74.5858 33.6988C75.1476 34.0438 75.7891 34.2163 76.508 34.2163C77.2269 34.2163 77.8683 34.0526 78.3859 33.7209C78.9036 33.3913 79.3106 32.9645 79.6114 32.4403L81.6796 33.4511C81.4407 34.0217 81.0691 34.5348 80.567 34.9904C80.0648 35.4482 79.4654 35.8065 78.7686 36.0697C78.0718 36.3329 77.3109 36.4634 76.4859 36.4634H76.4881Z" fill="#A3A4A5"/>
<path d="M85.9993 36.4628C87.2771 36.4628 88.313 35.427 88.313 34.1493C88.313 32.8717 87.2771 31.8359 85.9993 31.8359C84.7214 31.8359 83.6855 32.8717 83.6855 34.1493C83.6855 35.427 84.7214 36.4628 85.9993 36.4628Z" fill="#A3A4A5"/>
<path d="M28.8059 30.7499C30.0838 30.7499 31.1197 29.7141 31.1197 28.4365C31.1197 27.1588 30.0838 26.123 28.8059 26.123C27.5281 26.123 26.4922 27.1588 26.4922 28.4365C26.4922 29.7141 27.5281 30.7499 28.8059 30.7499Z" fill="white"/>
</svg>
