<?xml version="1.0" encoding="UTF-8"?>
<!DOCTYPE svg PUBLIC "-//W3C//DTD SVG 1.1//EN" "http://www.w3.org/Graphics/SVG/1.1/DTD/svg11.dtd">
<svg xmlns="http://www.w3.org/2000/svg" version="1.1" width="678px" height="729px" style="shape-rendering:geometricPrecision; text-rendering:geometricPrecision; image-rendering:optimizeQuality; fill-rule:evenodd; clip-rule:evenodd" xmlns:xlink="http://www.w3.org/1999/xlink">
<g><path style="opacity:0.993" fill="#6e00fe" d="M 347.5,-0.5 C 357.833,-0.5 368.167,-0.5 378.5,-0.5C 390.037,0.392465 401.703,1.39246 413.5,2.5C 414.795,3.48837 416.128,4.48837 417.5,5.5C 455.12,29.9403 488.287,59.607 517,94.5C 533.644,116.456 545.477,140.789 552.5,167.5C 492.683,111.724 421.683,87.2238 339.5,94C 243.967,103.151 172.8,149.317 126,232.5C 94.6867,296.648 86.6867,363.648 102,433.5C 125.797,522.632 180.63,584.132 266.5,618C 334.121,641.961 401.454,641.294 468.5,616C 487.773,607.703 505.773,597.369 522.5,585C 539.166,573.676 554.666,560.842 569,546.5C 574.554,539.223 578.054,531.057 579.5,522C 578.08,512.329 574.58,503.496 569,495.5C 556.768,478.2 543.935,461.366 530.5,445C 550.976,422.19 571.809,399.69 593,377.5C 616.696,408.549 639.696,440.216 662,472.5C 670.074,485.897 675.241,500.23 677.5,515.5C 677.5,522.833 677.5,530.167 677.5,537.5C 673.509,561.149 663.343,581.815 647,599.5C 580.744,675.713 497.244,718.713 396.5,728.5C 378.5,728.5 360.5,728.5 342.5,728.5C 209.847,718.563 110.014,656.563 43,542.5C 17.5972,495.538 3.09719,445.538 -0.5,392.5C -0.5,375.5 -0.5,358.5 -0.5,341.5C 9.8874,207.499 73.2207,107.332 189.5,41C 239.222,15.5706 291.889,1.73728 347.5,-0.5 Z"/></g>
<g><path style="opacity:1" fill="#809df8" d="M 413.5,2.5 C 417.705,2.71667 421.705,3.38333 425.5,4.5C 422.615,4.1936 419.948,4.52693 417.5,5.5C 416.128,4.48837 414.795,3.48837 413.5,2.5 Z"/></g>
<g><path style="opacity:1" fill="#7fdcfe" d="M 417.5,5.5 C 419.948,4.52693 422.615,4.1936 425.5,4.5C 492.047,12.7607 550.047,39.0941 599.5,83.5C 599.973,84.9063 600.973,85.573 602.5,85.5C 608.489,90.1569 614.156,95.1569 619.5,100.5C 622.101,104.771 625.434,108.437 629.5,111.5C 645.925,128.324 659.425,147.324 670,168.5C 673.309,177.417 675.809,186.417 677.5,195.5C 677.5,203.167 677.5,210.833 677.5,218.5C 674.776,234.299 668.943,248.965 660,262.5C 624.049,305.949 587.216,348.616 549.5,390.5C 548.094,390.973 547.427,391.973 547.5,393.5C 522.177,422.823 495.177,450.49 466.5,476.5C 464.973,476.427 463.973,477.094 463.5,478.5C 447.888,492.296 429.555,500.129 408.5,502C 372.103,505.568 338.77,497.234 308.5,477C 302.039,472.705 296.372,467.539 291.5,461.5C 290.738,459.738 289.404,458.738 287.5,458.5C 258.658,424.692 247.991,385.692 255.5,341.5C 257.04,339.162 257.706,336.495 257.5,333.5C 261.81,311.882 271.144,292.882 285.5,276.5C 287.587,275.415 288.92,273.749 289.5,271.5C 312.833,246.168 341.833,232.002 376.5,229C 412.277,226.025 444.611,235.025 473.5,256C 474.71,257.039 475.71,258.206 476.5,259.5C 476.973,260.906 477.973,261.573 479.5,261.5C 486.203,267.202 492.203,273.536 497.5,280.5C 498.075,282.411 499.075,284.078 500.5,285.5C 481.037,306.131 461.37,326.631 441.5,347C 439.255,346.805 437.422,345.638 436,343.5C 432.951,339.957 430.118,336.291 427.5,332.5C 425.5,328.5 422.5,325.5 418.5,323.5C 399.632,313.079 380.632,312.912 361.5,323C 347.477,333.355 340.477,347.355 340.5,365C 343.499,401.856 363.499,418.522 400.5,415C 408.488,413.168 415.821,410.002 422.5,405.5C 426.833,403.167 430.167,399.833 432.5,395.5C 433.833,393.5 435.5,391.833 437.5,390.5C 439.587,389.415 440.92,387.749 441.5,385.5C 442.833,383.5 444.5,381.833 446.5,380.5C 448.914,379.089 450.581,377.089 451.5,374.5C 454.792,369.54 458.792,365.207 463.5,361.5C 465.587,360.415 466.92,358.749 467.5,356.5C 471.127,351.206 475.46,346.539 480.5,342.5C 482.914,341.089 484.581,339.089 485.5,336.5C 486.167,335.167 487.167,334.167 488.5,333.5C 490.914,332.089 492.581,330.089 493.5,327.5C 507.455,310.545 522.121,294.211 537.5,278.5C 539.914,277.089 541.581,275.089 542.5,272.5C 543.167,271.167 544.167,270.167 545.5,269.5C 547.914,268.089 549.581,266.089 550.5,263.5C 557.959,254.919 563.626,245.253 567.5,234.5C 569.163,232.562 569.829,230.228 569.5,227.5C 572.528,204.932 566.861,184.932 552.5,167.5C 545.477,140.789 533.644,116.456 517,94.5C 488.287,59.607 455.12,29.9403 417.5,5.5 Z"/></g>
<g><path style="opacity:0.075" fill="#826bdb" d="M 599.5,83.5 C 601.027,83.427 602.027,84.0937 602.5,85.5C 600.973,85.573 599.973,84.9063 599.5,83.5 Z"/></g>
<g><path style="opacity:0.957" fill="#7880ec" d="M 619.5,100.5 C 623.566,103.563 626.899,107.229 629.5,111.5C 625.434,108.437 622.101,104.771 619.5,100.5 Z"/></g>
<g><path style="opacity:0.996" fill="#7c9bfb" d="M 569.5,227.5 C 569.829,230.228 569.163,232.562 567.5,234.5C 567.721,231.933 568.388,229.599 569.5,227.5 Z"/></g>
<g><path style="opacity:0.051" fill="#8067d8" d="M 476.5,259.5 C 478.027,259.427 479.027,260.094 479.5,261.5C 477.973,261.573 476.973,260.906 476.5,259.5 Z"/></g>
<g><path style="opacity:0.937" fill="#7790f6" d="M 550.5,263.5 C 549.581,266.089 547.914,268.089 545.5,269.5C 546.419,266.911 548.086,264.911 550.5,263.5 Z"/></g>
<g><path style="opacity:0.937" fill="#7c97fa" d="M 289.5,271.5 C 288.92,273.749 287.587,275.415 285.5,276.5C 286.08,274.251 287.413,272.585 289.5,271.5 Z"/></g>
<g><path style="opacity:0.937" fill="#7790f6" d="M 542.5,272.5 C 541.581,275.089 539.914,277.089 537.5,278.5C 538.419,275.911 540.086,273.911 542.5,272.5 Z"/></g>
<g><path style="opacity:0.984" fill="#778cf5" d="M 497.5,280.5 C 500.087,281.648 501.087,283.315 500.5,285.5C 499.075,284.078 498.075,282.411 497.5,280.5 Z"/></g>
<g><path style="opacity:0.831" fill="#7971da" d="M 418.5,323.5 C 422.5,325.5 425.5,328.5 427.5,332.5C 424.167,329.833 421.167,326.833 418.5,323.5 Z"/></g>
<g><path style="opacity:0.922" fill="#7d8df1" d="M 493.5,327.5 C 492.581,330.089 490.914,332.089 488.5,333.5C 489.419,330.911 491.086,328.911 493.5,327.5 Z"/></g>
<g><path style="opacity:0.933" fill="#778ff5" d="M 485.5,336.5 C 484.581,339.089 482.914,341.089 480.5,342.5C 481.419,339.911 483.086,337.911 485.5,336.5 Z"/></g>
<g><path style="opacity:0.867" fill="#7c9bfc" d="M 257.5,333.5 C 257.706,336.495 257.04,339.162 255.5,341.5C 255.565,338.572 256.232,335.905 257.5,333.5 Z"/></g>
<g><path style="opacity:0.867" fill="#8081e7" d="M 467.5,356.5 C 466.92,358.749 465.587,360.415 463.5,361.5C 464.08,359.251 465.413,357.585 467.5,356.5 Z"/></g>
<g><path style="opacity:0.937" fill="#778ff6" d="M 451.5,374.5 C 450.581,377.089 448.914,379.089 446.5,380.5C 447.419,377.911 449.086,375.911 451.5,374.5 Z"/></g>
<g><path style="opacity:0.875" fill="#8082e7" d="M 441.5,385.5 C 440.92,387.749 439.587,389.415 437.5,390.5C 438.08,388.251 439.413,386.585 441.5,385.5 Z"/></g>
<g><path style="opacity:0.012" fill="#6b49d7" d="M 549.5,390.5 C 549.573,392.027 548.906,393.027 547.5,393.5C 547.427,391.973 548.094,390.973 549.5,390.5 Z"/></g>
<g><path style="opacity:0.902" fill="#7c95f8" d="M 432.5,395.5 C 430.167,399.833 426.833,403.167 422.5,405.5C 425.5,401.833 428.833,398.5 432.5,395.5 Z"/></g>
<g><path style="opacity:0.855" fill="#7a64cc" d="M 287.5,458.5 C 289.404,458.738 290.738,459.738 291.5,461.5C 289.596,461.262 288.262,460.262 287.5,458.5 Z"/></g>
<g><path style="opacity:0.008" fill="#8454bf" d="M 466.5,476.5 C 466.027,477.906 465.027,478.573 463.5,478.5C 463.973,477.094 464.973,476.427 466.5,476.5 Z"/></g>
</svg>
