<svg version="1.1" id="Layer_1" xmlns="http://www.w3.org/2000/svg" xmlns:xlink="http://www.w3.org/1999/xlink" x="0px" y="0px"
	 width="100%" viewBox="0 0 1630 522" enable-background="new 0 0 1630 522" xml:space="preserve">
<path fill="#FFFFFF" opacity="1.000000" stroke="none" 
	d="
M1631.000000,303.000000 
	C1631.000000,376.313873 1631.000000,449.627716 1631.000000,523.000000 
	C1181.971924,523.000000 732.943909,523.000000 283.650513,522.612305 
	C295.727417,520.756897 308.275299,520.239319 320.368744,517.621887 
	C344.842926,512.324890 368.186676,503.714935 390.218567,491.483337 
	C410.349060,480.307281 428.567780,466.599823 445.249908,450.961121 
	C454.829712,441.980530 463.407135,431.826752 471.699799,421.604065 
	C481.480530,409.546875 486.571930,395.378143 486.956818,379.781250 
	C487.377655,362.726807 481.766571,347.447418 472.083038,333.650299 
	C461.245972,318.209564 450.146729,302.952423 439.119598,287.645660 
	C435.079102,282.037048 430.918304,276.515137 426.498962,270.529114 
	C410.925537,287.282867 395.851349,303.499481 380.723511,319.773895 
	C383.018127,322.586609 385.163605,325.043396 387.118835,327.643280 
	C395.436768,338.703522 404.362091,349.383331 411.776703,361.023102 
	C418.048828,370.869293 418.421539,380.083435 409.625702,390.736053 
	C405.577423,395.638916 401.083771,400.365601 396.076965,404.250671 
	C378.744873,417.699585 361.351990,431.043243 341.054443,440.072998 
	C319.499084,449.662292 296.922699,454.595734 273.541534,455.865387 
	C264.492737,456.356750 255.358276,455.406342 246.268845,454.983582 
	C230.885529,454.268097 216.012039,450.894287 201.424957,446.118561 
	C169.189560,435.564819 141.072617,418.721436 118.415283,393.029694 
	C107.329239,380.458954 97.753876,366.941040 90.107178,352.136383 
	C78.168526,329.022125 71.746338,304.195221 70.141914,278.327057 
	C68.884209,258.048950 69.881767,237.691391 74.240776,217.792831 
	C78.058029,200.367355 83.855850,183.568375 92.551308,167.765915 
	C103.801437,147.320801 117.697906,129.257736 135.388199,113.903450 
	C149.552322,101.609703 164.917068,91.541283 182.035828,83.958801 
	C204.835770,73.859924 228.819244,69.065483 253.566025,68.097923 
	C268.390411,67.518318 283.157806,68.284424 297.915833,70.821007 
	C315.506958,73.844521 332.269318,79.020767 348.267212,86.737923 
	C366.521240,95.543381 382.786652,107.226006 397.307129,121.770638 
	C405.204010,131.294022 409.551056,141.984726 409.899231,154.040359 
	C410.342285,169.380020 403.051056,181.505066 393.056458,192.371872 
	C386.221558,199.803253 379.392273,207.241684 372.676910,214.780685 
	C359.922882,229.098984 347.248108,243.487900 334.548828,257.854889 
	C327.104919,266.276337 319.645264,274.684235 312.251373,283.149475 
	C305.214233,291.206299 296.580750,296.911255 286.112305,298.853912 
	C271.892975,301.492523 252.967834,292.297150 249.044815,278.617004 
	C247.167343,272.069977 245.884033,264.986267 246.239777,258.246338 
	C246.857498,246.543228 252.494797,236.745819 263.048157,231.247330 
	C278.189209,223.358612 295.127350,226.596527 307.161469,238.820267 
	C310.981262,242.700211 314.404938,246.970093 318.367493,251.467422 
	C333.224731,235.342178 346.907776,220.491348 360.972961,205.225739 
	C358.466614,202.109451 356.133423,198.726151 353.324158,195.799896 
	C341.780945,183.775940 328.829712,173.788956 312.120087,170.193314 
	C302.238586,168.066956 292.248138,165.853760 282.207886,165.202438 
	C268.446686,164.309708 254.900101,166.817368 242.054611,172.056702 
	C222.274170,180.124573 206.923203,193.525024 196.461349,212.086060 
	C183.822098,234.510162 180.261124,258.528809 184.961624,283.900787 
	C189.057297,306.008209 200.018875,324.094177 216.982437,338.355865 
	C233.078354,351.888062 252.263885,358.844666 273.050568,360.900360 
	C300.293152,363.594543 324.257935,355.759277 343.449432,335.989990 
	C363.773010,315.054535 383.551636,293.584869 403.353363,272.150024 
	C413.905426,260.727661 424.151398,249.012543 434.268158,237.200531 
	C446.295990,223.157227 457.997589,208.835022 469.910889,194.692917 
	C488.673157,172.420609 492.244293,145.083511 480.247955,119.699013 
	C467.197144,92.083260 446.139099,71.089546 422.020935,53.004177 
	C415.075165,47.795788 407.321411,43.657120 400.433044,38.381744 
	C388.153748,28.977810 374.311615,22.581484 360.058929,17.209074 
	C344.364136,11.293077 328.234192,6.599483 311.380463,5.006040 
	C307.180511,4.608955 303.020325,3.791466 298.424927,3.123719 
	C295.305420,2.720101 292.598999,2.386081 289.901520,1.991147 
	C287.928284,1.702250 285.966736,1.333279 284.000000,0.999999 
	C732.884705,1.000000 1181.769409,1.000000 1631.000000,1.000000 
	C1631.000000,92.027740 1631.000000,183.055923 1630.618408,274.361145 
	C1629.172729,268.381012 1628.345337,262.072540 1627.003540,255.875443 
	C1620.700928,226.769577 1605.637939,203.498154 1580.641479,186.932297 
	C1561.816162,174.456177 1540.651855,169.886276 1518.536255,169.138489 
	C1511.715088,168.907837 1504.820679,170.184708 1497.990479,171.022614 
	C1483.615723,172.786118 1470.242065,177.624481 1457.869995,185.054123 
	C1439.447998,196.116882 1425.343872,211.327988 1415.853149,230.606949 
	C1406.324463,249.963074 1402.805664,270.461853 1403.840698,292.056641 
	C1404.585083,307.586365 1407.565552,322.276459 1413.734741,336.576630 
	C1424.101318,360.605804 1440.443726,378.578033 1464.101196,390.093933 
	C1485.983154,400.745514 1508.816284,403.631104 1532.829224,401.125977 
	C1553.715942,398.946991 1572.666870,392.278595 1589.731934,380.063416 
	C1608.525635,366.610840 1620.452637,348.477203 1627.095947,325.999695 
	C1610.257324,325.999695 1593.800659,326.095764 1577.347046,325.908600 
	C1574.482178,325.875977 1572.804321,326.882416 1571.457275,329.089203 
	C1561.227051,345.847992 1544.878784,352.017273 1526.642700,353.819916 
	C1514.881592,354.982513 1503.383545,353.350769 1492.140137,348.244598 
	C1472.688721,339.410645 1461.457886,324.925751 1457.213135,304.003784 
	C1459.657837,304.003784 1461.485718,304.003815 1463.313599,304.003815 
	C1517.135620,304.003815 1570.957642,304.014984 1624.779663,303.961426 
	C1626.853394,303.959351 1628.926514,303.334595 1631.000000,303.000000 
M871.938538,351.380768 
	C888.129333,322.941010 892.244934,292.209259 889.458679,259.881500 
	C872.131104,264.956238 855.034119,269.893219 838.015564,275.087769 
	C836.724915,275.481720 835.310791,277.617676 835.123291,279.092590 
	C834.459839,284.308899 834.830261,289.688324 833.866882,294.829407 
	C829.442993,318.438416 818.778381,338.746521 799.187744,353.077362 
	C775.495483,370.408569 748.697205,378.386505 719.364990,373.797302 
	C693.746826,369.789124 672.709045,356.596436 657.594727,335.730621 
	C640.748169,312.473358 632.604797,286.289886 635.869385,257.029999 
	C637.487732,242.525192 641.735352,229.128159 649.075989,216.648346 
	C660.804138,196.709229 677.898010,183.044601 699.417969,175.102859 
	C714.536804,169.523376 730.180664,165.883377 746.432617,169.089478 
	C755.132324,170.805725 763.972107,172.626511 772.182129,175.845139 
	C790.608215,183.068878 804.218628,196.403641 815.339661,212.741745 
	C833.566223,207.417328 851.801514,202.090347 870.354187,196.670670 
	C869.110779,194.656097 868.085999,193.199677 867.265747,191.635941 
	C855.924316,170.014099 839.861816,152.631622 819.738831,138.967941 
	C793.644409,121.249626 764.438721,113.885078 733.263916,114.496254 
	C714.635742,114.861465 696.568176,118.907814 678.962097,125.391335 
	C657.807678,133.181549 639.095703,144.744308 623.200439,160.503860 
	C610.157288,173.435654 600.043213,188.525665 592.609436,205.551071 
	C585.477478,221.885635 581.548401,238.874298 580.135559,256.418854 
	C578.914734,271.579590 579.972046,286.838745 583.138916,301.708160 
	C589.622620,332.150787 602.986023,359.316498 624.003052,382.463409 
	C636.938599,396.709808 652.600830,407.500885 669.792664,415.760376 
	C685.385620,423.251648 702.196777,427.870544 719.437866,428.719421 
	C733.551819,429.414307 748.035217,429.041931 761.906250,426.597595 
	C779.064148,423.574036 795.635376,417.830627 811.268372,409.471497 
	C836.766357,395.837372 857.086853,377.087097 871.938538,351.380768 
M1377.387939,76.999886 
	C1361.977905,76.999886 1346.567871,76.999886 1330.723877,76.999886 
	C1330.723877,120.749306 1330.723877,163.766907 1330.723877,207.902954 
	C1327.443604,203.962891 1325.062866,200.739395 1322.315308,197.866699 
	C1311.161987,186.205627 1297.820312,178.277771 1282.303345,173.566849 
	C1265.430664,168.444321 1248.403564,168.049561 1231.412231,171.416321 
	C1215.004028,174.667542 1200.077759,181.492172 1186.948730,192.360077 
	C1172.212891,204.558014 1161.548828,219.396301 1154.954956,237.227097 
	C1147.955322,256.155243 1145.224731,275.562408 1146.818726,295.850067 
	C1148.389771,315.847656 1153.239624,334.581390 1163.419312,351.865631 
	C1173.084106,368.275818 1186.121704,381.243225 1203.125610,390.007874 
	C1225.412231,401.495361 1248.801147,404.444550 1273.537109,400.159363 
	C1294.825928,396.471344 1311.797119,385.953308 1326.105103,370.362122 
	C1327.433228,368.914795 1328.590210,367.310364 1329.826660,365.778839 
	C1330.227173,365.934296 1330.627686,366.089752 1331.028198,366.245209 
	C1331.028198,375.753998 1331.028198,385.262787 1331.028198,394.645996 
	C1348.708618,394.645996 1365.765381,394.645996 1382.837158,394.645996 
	C1382.837158,288.715576 1382.837158,183.139191 1382.837158,77.238922 
	C1381.247314,77.154022 1379.803955,77.076950 1377.387939,76.999886 
M940.499329,369.999359 
	C950.624084,381.127106 963.136597,388.673279 977.030334,394.021912 
	C996.506470,401.519562 1016.593567,403.324310 1037.339111,401.149780 
	C1051.941040,399.619232 1065.825195,395.961487 1078.834229,389.512268 
	C1098.118774,379.951965 1113.042725,365.514862 1123.103882,346.404694 
	C1126.424805,340.097015 1128.844238,333.314758 1131.999146,325.999695 
	C1116.361694,325.999695 1102.210205,326.176910 1088.066528,325.919617 
	C1081.674194,325.803345 1075.651001,325.498322 1073.232178,333.185059 
	C1073.009644,333.892456 1072.090942,334.368011 1071.531738,334.984161 
	C1060.895142,346.703308 1047.210815,352.643250 1031.871460,353.839935 
	C1005.571106,355.891724 983.718994,347.232941 968.941406,324.335114 
	C965.085266,318.360199 962.259644,311.824585 961.985535,303.986115 
	C1019.756958,303.986115 1077.160400,303.986115 1135.468750,303.986115 
	C1134.965820,292.476501 1134.755005,281.420074 1133.931641,270.409454 
	C1132.929810,257.011230 1129.214233,244.192932 1123.491699,232.093323 
	C1116.810913,217.967529 1108.039307,205.359421 1095.842896,195.183533 
	C1087.123535,187.908707 1077.913330,181.586517 1067.146484,178.084183 
	C1058.250244,175.190308 1049.076050,173.097610 1039.948730,170.978790 
	C1026.271362,167.803741 1012.335510,168.608490 998.885986,171.294510 
	C972.907593,176.482697 950.694214,188.580185 933.645386,209.673935 
	C918.377991,228.563477 910.109924,250.143448 908.281677,273.924988 
	C907.342163,286.146606 908.285828,298.759064 910.217957,310.902191 
	C913.802917,333.432465 923.468567,353.323730 940.499329,369.999359 
z"/>
<path fill="#6F00FF" opacity="1.000000" stroke="none" 
	d="
M397.169006,121.516098 
	C382.786652,107.226006 366.521240,95.543381 348.267212,86.737923 
	C332.269318,79.020767 315.506958,73.844521 297.915833,70.821007 
	C283.157806,68.284424 268.390411,67.518318 253.566025,68.097923 
	C228.819244,69.065483 204.835770,73.859924 182.035828,83.958801 
	C164.917068,91.541283 149.552322,101.609703 135.388199,113.903450 
	C117.697906,129.257736 103.801437,147.320801 92.551308,167.765915 
	C83.855850,183.568375 78.058029,200.367355 74.240776,217.792831 
	C69.881767,237.691391 68.884209,258.048950 70.141914,278.327057 
	C71.746338,304.195221 78.168526,329.022125 90.107178,352.136383 
	C97.753876,366.941040 107.329239,380.458954 118.415283,393.029694 
	C141.072617,418.721436 169.189560,435.564819 201.424957,446.118561 
	C216.012039,450.894287 230.885529,454.268097 246.268845,454.983582 
	C255.358276,455.406342 264.492737,456.356750 273.541534,455.865387 
	C296.922699,454.595734 319.499084,449.662292 341.054443,440.072998 
	C361.351990,431.043243 378.744873,417.699585 396.076965,404.250671 
	C401.083771,400.365601 405.577423,395.638916 409.625702,390.736053 
	C418.421539,380.083435 418.048828,370.869293 411.776703,361.023102 
	C404.362091,349.383331 395.436768,338.703522 387.118835,327.643280 
	C385.163605,325.043396 383.018127,322.586609 380.723511,319.773895 
	C395.851349,303.499481 410.925537,287.282867 426.498962,270.529114 
	C430.918304,276.515137 435.079102,282.037048 439.119598,287.645660 
	C450.146729,302.952423 461.245972,318.209564 472.083038,333.650299 
	C481.766571,347.447418 487.377655,362.726807 486.956818,379.781250 
	C486.571930,395.378143 481.480530,409.546875 471.699799,421.604065 
	C463.407135,431.826752 454.829712,441.980530 445.249908,450.961121 
	C428.567780,466.599823 410.349060,480.307281 390.218567,491.483337 
	C368.186676,503.714935 344.842926,512.324890 320.368744,517.621887 
	C308.275299,520.239319 295.727417,520.756897 283.192566,522.612305 
	C271.979095,523.000000 260.958221,523.000000 249.276413,522.610962 
	C236.429352,520.816895 224.174454,519.843994 212.071182,517.918030 
	C185.791275,513.736328 160.995346,504.995422 137.334671,492.800964 
	C114.751060,481.161682 95.040329,465.691864 76.840378,448.205505 
	C71.282822,442.865875 66.527649,436.691223 61.403816,430.900024 
	C49.046215,416.932831 38.426292,401.643402 30.218061,385.002930 
	C23.222927,370.821716 17.238070,356.013519 12.252252,341.002411 
	C5.978180,322.112640 2.508660,302.507660 1.960668,282.493286 
	C1.928571,281.320984 1.333232,280.164062 1.000002,279.000000 
	C1.000000,268.979095 1.000000,258.958221 1.388698,248.275787 
	C2.184464,242.528717 2.359004,237.411560 3.045491,232.364044 
	C4.626955,220.736053 5.639750,208.947540 8.344925,197.571716 
	C15.495376,167.502563 27.372265,139.360855 45.018257,113.808830 
	C59.496250,92.844185 76.540459,74.314552 96.261421,58.118481 
	C120.917000,37.869797 148.278885,22.763309 178.651398,13.099298 
	C194.647873,8.009488 210.961685,4.410273 227.727295,2.953083 
	C232.174530,2.566551 236.576981,1.665052 241.000000,1.000000 
	C255.020889,1.000000 269.041779,1.000000 283.531342,0.999999 
	C285.966736,1.333279 287.928284,1.702250 289.901520,1.991147 
	C292.598999,2.386081 295.305420,2.720101 298.631104,3.386807 
	C302.600067,6.158383 305.937958,8.634358 309.293152,11.086645 
	C335.772675,30.440435 360.670502,51.441883 378.855927,79.224037 
	C387.370972,92.232605 394.385986,105.981590 397.169006,121.516098 
z"/>
<path fill="#6F00FF" opacity="1.000000" stroke="none" 
	d="
M1631.000000,302.531342 
	C1628.926514,303.334595 1626.853394,303.959351 1624.779663,303.961426 
	C1570.957642,304.014984 1517.135620,304.003815 1463.313599,304.003815 
	C1461.485718,304.003815 1459.657837,304.003784 1457.213135,304.003784 
	C1461.457886,324.925751 1472.688721,339.410645 1492.140137,348.244598 
	C1503.383545,353.350769 1514.881592,354.982513 1526.642700,353.819916 
	C1544.878784,352.017273 1561.227051,345.847992 1571.457275,329.089203 
	C1572.804321,326.882416 1574.482178,325.875977 1577.347046,325.908600 
	C1593.800659,326.095764 1610.257324,325.999695 1627.095947,325.999695 
	C1620.452637,348.477203 1608.525635,366.610840 1589.731934,380.063416 
	C1572.666870,392.278595 1553.715942,398.946991 1532.829224,401.125977 
	C1508.816284,403.631104 1485.983154,400.745514 1464.101196,390.093933 
	C1440.443726,378.578033 1424.101318,360.605804 1413.734741,336.576630 
	C1407.565552,322.276459 1404.585083,307.586365 1403.840698,292.056641 
	C1402.805664,270.461853 1406.324463,249.963074 1415.853149,230.606949 
	C1425.343872,211.327988 1439.447998,196.116882 1457.869995,185.054123 
	C1470.242065,177.624481 1483.615723,172.786118 1497.990479,171.022614 
	C1504.820679,170.184708 1511.715088,168.907837 1518.536255,169.138489 
	C1540.651855,169.886276 1561.816162,174.456177 1580.641479,186.932297 
	C1605.637939,203.498154 1620.700928,226.769577 1627.003540,255.875443 
	C1628.345337,262.072540 1629.172729,268.381012 1630.618408,274.819092 
	C1631.000000,284.020905 1631.000000,293.041779 1631.000000,302.531342 
M1547.500000,261.000000 
	C1556.930908,261.000000 1566.361938,261.000000 1575.885498,261.000000 
	C1570.900024,235.723633 1548.511597,218.074799 1519.339355,217.167542 
	C1488.292236,216.201950 1464.061768,234.428284 1458.652344,260.857635 
	C1458.981445,260.900116 1459.310669,260.979675 1459.639893,260.979797 
	C1488.593262,260.990479 1517.546631,260.995026 1547.500000,261.000000 
z"/>
<path fill="#FFFFFF" opacity="1.000000" stroke="none" 
	d="
M1.000002,279.468658 
	C1.333232,280.164062 1.928571,281.320984 1.960668,282.493286 
	C2.508660,302.507660 5.978180,322.112640 12.252252,341.002411 
	C17.238070,356.013519 23.222927,370.821716 30.218061,385.002930 
	C38.426292,401.643402 49.046215,416.932831 61.403816,430.900024 
	C66.527649,436.691223 71.282822,442.865875 76.840378,448.205505 
	C95.040329,465.691864 114.751060,481.161682 137.334671,492.800964 
	C160.995346,504.995422 185.791275,513.736328 212.071182,517.918030 
	C224.174454,519.843994 236.429352,520.816895 248.807755,522.610962 
	C166.406891,523.000000 83.813774,523.000000 1.000000,523.000000 
	C1.000000,441.979248 1.000000,360.958282 1.000002,279.468658 
z"/>
<path fill="#FFFFFF" opacity="1.000000" stroke="none" 
	d="
M240.531342,1.000000 
	C236.576981,1.665052 232.174530,2.566551 227.727295,2.953083 
	C210.961685,4.410273 194.647873,8.009488 178.651398,13.099298 
	C148.278885,22.763309 120.917000,37.869797 96.261421,58.118481 
	C76.540459,74.314552 59.496250,92.844185 45.018257,113.808830 
	C27.372265,139.360855 15.495376,167.502563 8.344925,197.571716 
	C5.639750,208.947540 4.626955,220.736053 3.045491,232.364044 
	C2.359004,237.411560 2.184464,242.528717 1.388698,247.807129 
	C1.000000,165.740677 1.000000,83.481354 1.000000,1.000000 
	C80.687424,1.000000 160.375046,1.000000 240.531342,1.000000 
z"/>
<path fill="#7FDCFF" opacity="1.000000" stroke="none" 
	d="
M397.307129,121.770638 
	C394.385986,105.981590 387.370972,92.232605 378.855927,79.224037 
	C360.670502,51.441883 335.772675,30.440435 309.293152,11.086645 
	C305.937958,8.634358 302.600067,6.158383 299.048035,3.430296 
	C303.020325,3.791466 307.180511,4.608955 311.380463,5.006040 
	C328.234192,6.599483 344.364136,11.293077 360.058929,17.209074 
	C374.311615,22.581484 388.153748,28.977810 400.433044,38.381744 
	C407.321411,43.657120 415.075165,47.795788 422.020935,53.004177 
	C446.139099,71.089546 467.197144,92.083260 480.247955,119.699013 
	C492.244293,145.083511 488.673157,172.420609 469.910889,194.692917 
	C457.997589,208.835022 446.295990,223.157227 434.268158,237.200531 
	C424.151398,249.012543 413.905426,260.727661 403.353363,272.150024 
	C383.551636,293.584869 363.773010,315.054535 343.449432,335.989990 
	C324.257935,355.759277 300.293152,363.594543 273.050568,360.900360 
	C252.263885,358.844666 233.078354,351.888062 216.982437,338.355865 
	C200.018875,324.094177 189.057297,306.008209 184.961624,283.900787 
	C180.261124,258.528809 183.822098,234.510162 196.461349,212.086060 
	C206.923203,193.525024 222.274170,180.124573 242.054611,172.056702 
	C254.900101,166.817368 268.446686,164.309708 282.207886,165.202438 
	C292.248138,165.853760 302.238586,168.066956 312.120087,170.193314 
	C328.829712,173.788956 341.780945,183.775940 353.324158,195.799896 
	C356.133423,198.726151 358.466614,202.109451 360.972961,205.225739 
	C346.907776,220.491348 333.224731,235.342178 318.367493,251.467422 
	C314.404938,246.970093 310.981262,242.700211 307.161469,238.820267 
	C295.127350,226.596527 278.189209,223.358612 263.048157,231.247330 
	C252.494797,236.745819 246.857498,246.543228 246.239777,258.246338 
	C245.884033,264.986267 247.167343,272.069977 249.044815,278.617004 
	C252.967834,292.297150 271.892975,301.492523 286.112305,298.853912 
	C296.580750,296.911255 305.214233,291.206299 312.251373,283.149475 
	C319.645264,274.684235 327.104919,266.276337 334.548828,257.854889 
	C347.248108,243.487900 359.922882,229.098984 372.676910,214.780685 
	C379.392273,207.241684 386.221558,199.803253 393.056458,192.371872 
	C403.051056,181.505066 410.342285,169.380020 409.899231,154.040359 
	C409.551056,141.984726 405.204010,131.294022 397.307129,121.770638 
z"/>
<path fill="#6F00FF" opacity="1.000000" stroke="none" 
	d="
M871.722046,351.687805 
	C857.086853,377.087097 836.766357,395.837372 811.268372,409.471497 
	C795.635376,417.830627 779.064148,423.574036 761.906250,426.597595 
	C748.035217,429.041931 733.551819,429.414307 719.437866,428.719421 
	C702.196777,427.870544 685.385620,423.251648 669.792664,415.760376 
	C652.600830,407.500885 636.938599,396.709808 624.003052,382.463409 
	C602.986023,359.316498 589.622620,332.150787 583.138916,301.708160 
	C579.972046,286.838745 578.914734,271.579590 580.135559,256.418854 
	C581.548401,238.874298 585.477478,221.885635 592.609436,205.551071 
	C600.043213,188.525665 610.157288,173.435654 623.200439,160.503860 
	C639.095703,144.744308 657.807678,133.181549 678.962097,125.391335 
	C696.568176,118.907814 714.635742,114.861465 733.263916,114.496254 
	C764.438721,113.885078 793.644409,121.249626 819.738831,138.967941 
	C839.861816,152.631622 855.924316,170.014099 867.265747,191.635941 
	C868.085999,193.199677 869.110779,194.656097 870.354187,196.670670 
	C851.801514,202.090347 833.566223,207.417328 815.339661,212.741745 
	C804.218628,196.403641 790.608215,183.068878 772.182129,175.845139 
	C763.972107,172.626511 755.132324,170.805725 746.432617,169.089478 
	C730.180664,165.883377 714.536804,169.523376 699.417969,175.102859 
	C677.898010,183.044601 660.804138,196.709229 649.075989,216.648346 
	C641.735352,229.128159 637.487732,242.525192 635.869385,257.029999 
	C632.604797,286.289886 640.748169,312.473358 657.594727,335.730621 
	C672.709045,356.596436 693.746826,369.789124 719.364990,373.797302 
	C748.697205,378.386505 775.495483,370.408569 799.187744,353.077362 
	C818.778381,338.746521 829.442993,318.438416 833.866882,294.829407 
	C834.830261,289.688324 834.459839,284.308899 835.123291,279.092590 
	C835.310791,277.617676 836.724915,275.481720 838.015564,275.087769 
	C855.034119,269.893219 872.131104,264.956238 889.458679,259.881500 
	C892.244934,292.209259 888.129333,322.941010 871.722046,351.687805 
z"/>
<path fill="#6F00FF" opacity="1.000000" stroke="none" 
	d="
M1377.874268,76.999878 
	C1379.803955,77.076950 1381.247314,77.154022 1382.837158,77.238922 
	C1382.837158,183.139191 1382.837158,288.715576 1382.837158,394.645996 
	C1365.765381,394.645996 1348.708618,394.645996 1331.028198,394.645996 
	C1331.028198,385.262787 1331.028198,375.753998 1331.028198,366.245209 
	C1330.627686,366.089752 1330.227173,365.934296 1329.826660,365.778839 
	C1328.590210,367.310364 1327.433228,368.914795 1326.105103,370.362122 
	C1311.797119,385.953308 1294.825928,396.471344 1273.537109,400.159363 
	C1248.801147,404.444550 1225.412231,401.495361 1203.125610,390.007874 
	C1186.121704,381.243225 1173.084106,368.275818 1163.419312,351.865631 
	C1153.239624,334.581390 1148.389771,315.847656 1146.818726,295.850067 
	C1145.224731,275.562408 1147.955322,256.155243 1154.954956,237.227097 
	C1161.548828,219.396301 1172.212891,204.558014 1186.948730,192.360077 
	C1200.077759,181.492172 1215.004028,174.667542 1231.412231,171.416321 
	C1248.403564,168.049561 1265.430664,168.444321 1282.303345,173.566849 
	C1297.820312,178.277771 1311.161987,186.205627 1322.315308,197.866699 
	C1325.062866,200.739395 1327.443604,203.962891 1330.723877,207.902954 
	C1330.723877,163.766907 1330.723877,120.749306 1330.723877,76.999886 
	C1346.567871,76.999886 1361.977905,76.999886 1377.874268,76.999878 
M1260.722778,352.999969 
	C1265.478027,352.668793 1270.260864,352.558807 1274.984131,351.970825 
	C1307.923950,347.870300 1329.319824,320.826996 1330.912231,288.912506 
	C1331.470825,277.719025 1329.035278,267.005829 1324.402344,256.604736 
	C1318.186646,242.650314 1308.221680,232.304703 1294.929810,225.669922 
	C1279.838013,218.136612 1263.574097,216.912323 1247.168579,221.088867 
	C1232.796753,224.747650 1220.906982,232.391663 1211.937866,244.376480 
	C1199.115845,261.509766 1196.238281,280.919128 1200.170898,301.267456 
	C1203.621826,319.123962 1213.217163,333.260040 1229.016235,343.094574 
	C1238.553711,349.031372 1248.946533,351.509521 1260.722778,352.999969 
z"/>
<path fill="#6F00FF" opacity="1.000000" stroke="none" 
	d="
M940.249268,369.749084 
	C923.468567,353.323730 913.802917,333.432465 910.217957,310.902191 
	C908.285828,298.759064 907.342163,286.146606 908.281677,273.924988 
	C910.109924,250.143448 918.377991,228.563477 933.645386,209.673935 
	C950.694214,188.580185 972.907593,176.482697 998.885986,171.294510 
	C1012.335510,168.608490 1026.271362,167.803741 1039.948730,170.978790 
	C1049.076050,173.097610 1058.250244,175.190308 1067.146484,178.084183 
	C1077.913330,181.586517 1087.123535,187.908707 1095.842896,195.183533 
	C1108.039307,205.359421 1116.810913,217.967529 1123.491699,232.093323 
	C1129.214233,244.192932 1132.929810,257.011230 1133.931641,270.409454 
	C1134.755005,281.420074 1134.965820,292.476501 1135.468750,303.986115 
	C1077.160400,303.986115 1019.756958,303.986115 961.985535,303.986115 
	C962.259644,311.824585 965.085266,318.360199 968.941406,324.335114 
	C983.718994,347.232941 1005.571106,355.891724 1031.871460,353.839935 
	C1047.210815,352.643250 1060.895142,346.703308 1071.531738,334.984161 
	C1072.090942,334.368011 1073.009644,333.892456 1073.232178,333.185059 
	C1075.651001,325.498322 1081.674194,325.803345 1088.066528,325.919617 
	C1102.210205,326.176910 1116.361694,325.999695 1131.999146,325.999695 
	C1128.844238,333.314758 1126.424805,340.097015 1123.103882,346.404694 
	C1113.042725,365.514862 1098.118774,379.951965 1078.834229,389.512268 
	C1065.825195,395.961487 1051.941040,399.619232 1037.339111,401.149780 
	C1016.593567,403.324310 996.506470,401.519562 977.030334,394.021912 
	C963.136597,388.673279 950.624084,381.127106 940.249268,369.749084 
M1044.979004,221.479965 
	C1021.581482,213.361420 999.639160,216.147873 980.178894,231.602432 
	C971.067139,238.838669 965.411499,248.915222 962.697998,260.865723 
	C1002.515137,260.865723 1041.468506,260.865723 1081.341675,260.865723 
	C1078.791138,255.420593 1076.674927,250.200974 1073.983398,245.297043 
	C1067.669922,233.793747 1058.057007,226.119125 1044.979004,221.479965 
z"/>
<path fill="#FFFFFF" opacity="1.000000" stroke="none" 
	d="
M1547.000000,261.000000 
	C1517.546631,260.995026 1488.593262,260.990479 1459.639893,260.979797 
	C1459.310669,260.979675 1458.981445,260.900116 1458.652588,260.855988 
	C1464.061768,234.428284 1488.292236,216.201950 1519.339355,217.167542 
	C1548.511597,218.074799 1570.900024,235.723633 1575.885498,261.000000 
	C1566.361938,261.000000 1556.930908,261.000000 1547.000000,261.000000 
z"/>
<path fill="#FFFFFF" opacity="1.000000" stroke="none" 
	d="
M1260.252686,352.999573 
	C1248.946533,351.509521 1238.553711,349.031372 1229.016235,343.094574 
	C1213.217163,333.260040 1203.621826,319.123962 1200.170898,301.267456 
	C1196.238281,280.919128 1199.115845,261.509766 1211.937866,244.376480 
	C1220.906982,232.391663 1232.796753,224.747650 1247.168579,221.088867 
	C1263.574097,216.912323 1279.838013,218.136612 1294.929810,225.669922 
	C1308.221680,232.304703 1318.186646,242.650314 1324.402344,256.604736 
	C1329.035278,267.005829 1331.470825,277.719025 1330.912231,288.912506 
	C1329.319824,320.826996 1307.923950,347.870300 1274.984131,351.970825 
	C1270.260864,352.558807 1265.478027,352.668793 1260.252686,352.999573 
z"/>
<path fill="#FFFFFF" opacity="1.000000" stroke="none" 
	d="
M1045.312378,221.700836 
	C1058.057007,226.119125 1067.669922,233.793747 1073.983398,245.297043 
	C1076.674927,250.200974 1078.791138,255.420593 1081.341675,260.865723 
	C1041.468506,260.865723 1002.515137,260.865723 962.697998,260.865723 
	C965.411499,248.915222 971.067139,238.838669 980.178894,231.602432 
	C999.639160,216.147873 1021.581482,213.361420 1045.312378,221.700836 
z"/>
</svg>