<svg width="16" height="17" viewBox="0 0 16 17" fill="none" xmlns="http://www.w3.org/2000/svg">
<path d="M11.5 4.69336H2.5C2.36739 4.69336 2.24021 4.74604 2.14645 4.83981C2.05268 4.93357 2 5.06075 2 5.19336V14.1934C2 14.326 2.05268 14.4531 2.14645 14.5469C2.24021 14.6407 2.36739 14.6934 2.5 14.6934H11.5C11.6326 14.6934 11.7598 14.6407 11.8536 14.5469C11.9473 14.4531 12 14.326 12 14.1934V5.19336C12 5.06075 11.9473 4.93357 11.8536 4.83981C11.7598 4.74604 11.6326 4.69336 11.5 4.69336ZM11 13.6934H3V5.69336H11V13.6934ZM14 3.19336V12.1934C14 12.326 13.9473 12.4531 13.8536 12.5469C13.7598 12.6407 13.6326 12.6934 13.5 12.6934C13.3674 12.6934 13.2402 12.6407 13.1464 12.5469C13.0527 12.4531 13 12.326 13 12.1934V3.69336H4.5C4.36739 3.69336 4.24021 3.64068 4.14645 3.54691C4.05268 3.45314 4 3.32597 4 3.19336C4 3.06075 4.05268 2.93357 4.14645 2.83981C4.24021 2.74604 4.36739 2.69336 4.5 2.69336H13.5C13.6326 2.69336 13.7598 2.74604 13.8536 2.83981C13.9473 2.93357 14 3.06075 14 3.19336Z" fill="#065DA7"/>
</svg>
