<svg width="20" height="20" viewBox="0 0 20 20" fill="none" xmlns="http://www.w3.org/2000/svg">
<path d="M19.75 10.1981C19.7469 12.581 18.8726 14.8806 17.2917 16.6637C15.7109 18.4468 13.5326 19.5902 11.1671 19.8787C11.1145 19.8847 11.0611 19.8794 11.0107 19.8633C10.9602 19.8471 10.9137 19.8204 10.8743 19.785C10.8348 19.7496 10.8034 19.7062 10.782 19.6577C10.7605 19.6092 10.7496 19.5567 10.75 19.5037V12.4481H13C13.1028 12.4483 13.2045 12.4274 13.2989 12.3866C13.3933 12.3459 13.4783 12.2862 13.5487 12.2112C13.619 12.1362 13.6732 12.0475 13.7078 11.9507C13.7424 11.8539 13.7568 11.751 13.75 11.6484C13.7334 11.4555 13.6444 11.2761 13.5009 11.1462C13.3574 11.0163 13.1701 10.9455 12.9765 10.9481H10.75V8.6981C10.75 8.30027 10.908 7.91874 11.1893 7.63744C11.4706 7.35613 11.8521 7.1981 12.25 7.1981H13.75C13.8528 7.19832 13.9545 7.17741 14.0489 7.13665C14.1433 7.09589 14.2283 7.03616 14.2987 6.96116C14.369 6.88617 14.4232 6.79751 14.4578 6.7007C14.4924 6.60389 14.5068 6.501 14.5 6.39841C14.4834 6.20522 14.3941 6.02551 14.2502 5.89554C14.1063 5.76557 13.9185 5.69501 13.7246 5.6981H12.25C11.4543 5.6981 10.6912 6.01417 10.1286 6.57678C9.56603 7.13939 9.24996 7.90245 9.24996 8.6981V10.9481H6.99996C6.89714 10.9479 6.79538 10.9688 6.70099 11.0095C6.60659 11.0503 6.52159 11.11 6.45126 11.185C6.38092 11.26 6.32676 11.3487 6.29213 11.4455C6.2575 11.5423 6.24315 11.6452 6.24996 11.7478C6.26655 11.941 6.35579 12.1207 6.49968 12.2506C6.64357 12.3806 6.8314 12.4512 7.02527 12.4481H9.24996V19.5056C9.25028 19.5585 9.2394 19.6109 9.21803 19.6593C9.19666 19.7077 9.16528 19.7511 9.12597 19.7865C9.08665 19.8219 9.04028 19.8486 8.98991 19.8648C8.93954 19.881 8.8863 19.8864 8.83371 19.8806C6.40498 19.5848 4.1758 18.388 2.5874 16.527C0.999005 14.6661 0.167161 12.2766 0.25652 9.83153C0.44402 4.76903 4.54464 0.653409 9.6109 0.456534C10.9225 0.405727 12.231 0.619988 13.4579 1.0865C14.6848 1.55301 15.8051 2.26219 16.7516 3.17162C17.6981 4.08105 18.4515 5.17205 18.9667 6.37935C19.4819 7.58666 19.7483 8.88547 19.75 10.1981Z" fill="#065DA7"/>
</svg>
