<svg width="24" height="25" viewBox="0 0 24 25" fill="none" xmlns="http://www.w3.org/2000/svg">
<g clip-path="url(#clip0_13413_4311)">
<path d="M15.402 21.0547V14.0887H17.735L18.084 11.3807H15.402V9.65269C15.402 8.86869 15.62 8.33369 16.744 8.33369H18.178V5.91169C17.4838 5.83803 16.7861 5.80231 16.088 5.80469C14.021 5.80469 12.606 7.06669 12.606 9.38469V11.3807H10.268V14.0887H12.606V21.0547H4C3.73478 21.0547 3.48043 20.9493 3.29289 20.7618C3.10536 20.5743 3 20.3199 3 20.0547V4.05469C3 3.78947 3.10536 3.53512 3.29289 3.34758C3.48043 3.16004 3.73478 3.05469 4 3.05469H20C20.2652 3.05469 20.5196 3.16004 20.7071 3.34758C20.8946 3.53512 21 3.78947 21 4.05469V20.0547C21 20.3199 20.8946 20.5743 20.7071 20.7618C20.5196 20.9493 20.2652 21.0547 20 21.0547H15.402Z" fill="#A3A4A5"/>
</g>
<defs>
<clipPath id="clip0_13413_4311">
<rect width="24" height="24" fill="white" transform="translate(0 0.0546875)"/>
</clipPath>
</defs>
</svg>
