<svg width="752" height="261" viewBox="0 0 752 261" fill="none" xmlns="http://www.w3.org/2000/svg">
<rect x="-1" y="-2" width="753" height="227" fill="#FEA218"/>
<circle cx="376.264" cy="112.264" r="60" transform="rotate(-20.5835 376.264 112.264)" fill="white"/>
<circle cx="376.264" cy="112.264" r="60" transform="rotate(-20.5835 376.264 112.264)" fill="#065DA7" fill-opacity="0.08"/>
<g clip-path="url(#clip0_3263_663)">
<path d="M361.985 74.232C354.463 77.0568 347.947 82.0488 343.263 88.5765C338.578 95.1042 335.934 102.875 335.665 110.905C335.396 118.935 337.515 126.865 341.753 133.691C345.991 140.518 352.158 145.934 359.474 149.255C366.791 152.577 374.927 153.654 382.856 152.351C390.784 151.048 398.148 147.423 404.017 141.934C409.885 136.446 413.994 129.341 415.824 121.517C417.655 113.693 417.124 105.503 414.299 97.9809C410.501 87.9016 402.861 79.7404 393.053 75.288C383.245 70.8357 372.072 70.4559 361.985 74.232ZM390.446 99.2862L377.658 127.455C377.489 127.829 377.247 128.166 376.947 128.447C376.647 128.728 376.295 128.946 375.91 129.091C375.526 129.235 375.117 129.302 374.706 129.288C374.296 129.275 373.892 129.18 373.518 129.01L361.446 123.529C360.691 123.187 360.103 122.558 359.811 121.782C359.52 121.005 359.549 120.145 359.891 119.39C360.234 118.635 360.863 118.047 361.639 117.755C362.416 117.464 363.276 117.492 364.031 117.835L373.258 122.027L384.752 96.7012C384.921 96.3273 385.163 95.9905 385.463 95.7101C385.763 95.4296 386.115 95.2109 386.5 95.0666C386.884 94.9222 387.293 94.855 387.703 94.8687C388.114 94.8824 388.517 94.9769 388.891 95.1466C389.265 95.3163 389.602 95.5581 389.882 95.8579C390.163 96.1578 390.382 96.51 390.526 96.8944C390.67 97.2788 390.738 97.6879 390.724 98.0983C390.71 98.5087 390.616 98.9123 390.446 99.2862Z" fill="#065DA7"/>
</g>
<circle cx="705.5" cy="183.5" r="77.5" fill="white" fill-opacity="0.2"/>
<circle cx="673.5" cy="175.5" r="77.5" fill="white" fill-opacity="0.2"/>
<defs>
<clipPath id="clip0_3263_663">
<rect width="100" height="100" fill="white" transform="translate(311.879 83.0342) rotate(-20.5835)"/>
</clipPath>
</defs>
</svg>
