<svg width="24" height="25" viewBox="0 0 24 25" fill="none" xmlns="http://www.w3.org/2000/svg">
<g clip-path="url(#clip0_13413_4314)">
<path d="M18.335 18.3937H15.67V14.2167C15.67 13.2207 15.65 11.9387 14.28 11.9387C12.891 11.9387 12.679 13.0227 12.679 14.1437V18.3937H10.013V9.80469H12.573V10.9747H12.608C12.966 10.3007 13.836 9.58769 15.136 9.58769C17.836 9.58769 18.336 11.3657 18.336 13.6787V18.3937H18.335ZM7.003 8.62969C6.79956 8.62995 6.59806 8.59006 6.41006 8.51229C6.22207 8.43453 6.05127 8.32043 5.90746 8.17652C5.76365 8.03262 5.64965 7.86175 5.57201 7.6737C5.49437 7.48565 5.4546 7.28413 5.455 7.08069C5.4552 6.77452 5.54618 6.47529 5.71644 6.22083C5.8867 5.96638 6.12859 5.76812 6.41153 5.65114C6.69447 5.53416 7.00574 5.5037 7.30598 5.56363C7.60622 5.62355 7.88196 5.77116 8.09831 5.98779C8.31466 6.20443 8.46191 6.48035 8.52145 6.78067C8.58099 7.08099 8.55013 7.39222 8.43278 7.67501C8.31543 7.95779 8.11687 8.19943 7.86219 8.36936C7.60751 8.53929 7.30817 8.62989 7.002 8.62969H7.003ZM8.339 18.3937H5.666V9.80469H8.34V18.3937H8.339ZM19.67 3.05469H4.329C3.593 3.05469 3 3.63469 3 4.35169V19.7577C3 20.4747 3.594 21.0547 4.328 21.0547H19.666C20.4 21.0547 21 20.4747 21 19.7577V4.35169C21 3.63469 20.4 3.05469 19.666 3.05469H19.669H19.67Z" fill="#A3A4A5"/>
</g>
<defs>
<clipPath id="clip0_13413_4314">
<rect width="24" height="24" fill="white" transform="translate(0 0.0546875)"/>
</clipPath>
</defs>
</svg>
