<svg width="24" height="25" viewBox="0 0 24 25" fill="none" xmlns="http://www.w3.org/2000/svg">
<path d="M16.5 2.44824H7.5C6.10807 2.44973 4.77358 3.00333 3.78933 3.98758C2.80509 4.97182 2.25149 6.30631 2.25 7.69824V16.6982C2.25149 18.0902 2.80509 19.4247 3.78933 20.4089C4.77358 21.3932 6.10807 21.9468 7.5 21.9482H16.5C17.8919 21.9468 19.2264 21.3932 20.2107 20.4089C21.1949 19.4247 21.7485 18.0902 21.75 16.6982V7.69824C21.7485 6.30631 21.1949 4.97182 20.2107 3.98758C19.2264 3.00333 17.8919 2.44973 16.5 2.44824ZM12 16.6982C11.11 16.6982 10.24 16.4343 9.49993 15.9399C8.75991 15.4454 8.18314 14.7426 7.84254 13.9203C7.50195 13.0981 7.41283 12.1933 7.58647 11.3203C7.7601 10.4474 8.18868 9.6456 8.81802 9.01626C9.44736 8.38693 10.2492 7.95834 11.1221 7.78471C11.995 7.61108 12.8998 7.70019 13.7221 8.04078C14.5443 8.38138 15.2471 8.95815 15.7416 9.69818C16.2361 10.4382 16.5 11.3082 16.5 12.1982C16.4988 13.3913 16.0243 14.5352 15.1806 15.3789C14.337 16.2225 13.1931 16.697 12 16.6982ZM17.625 7.69824C17.4025 7.69824 17.185 7.63226 17 7.50865C16.815 7.38503 16.6708 7.20933 16.5856 7.00376C16.5005 6.79819 16.4782 6.57199 16.5216 6.35377C16.565 6.13554 16.6722 5.93508 16.8295 5.77775C16.9868 5.62041 17.1873 5.51327 17.4055 5.46986C17.6238 5.42645 17.85 5.44873 18.0555 5.53388C18.2611 5.61903 18.4368 5.76322 18.5604 5.94823C18.684 6.13323 18.75 6.35074 18.75 6.57324C18.75 6.87161 18.6315 7.15776 18.4205 7.36874C18.2095 7.57972 17.9234 7.69824 17.625 7.69824ZM15 12.1982C15 12.7916 14.8241 13.3716 14.4944 13.865C14.1648 14.3583 13.6962 14.7428 13.1481 14.9699C12.5999 15.1969 11.9967 15.2564 11.4147 15.1406C10.8328 15.0248 10.2982 14.7391 9.87868 14.3196C9.45912 13.9 9.1734 13.3655 9.05764 12.7835C8.94189 12.2016 9.0013 11.5984 9.22836 11.0502C9.45542 10.502 9.83994 10.0335 10.3333 9.70383C10.8266 9.37419 11.4067 9.19824 12 9.19824C12.7956 9.19824 13.5587 9.51431 14.1213 10.0769C14.6839 10.6395 15 11.4026 15 12.1982Z" fill="#065DA7"/>
</svg>
