<svg width="81" height="87" viewBox="0 0 81 87" fill="none" xmlns="http://www.w3.org/2000/svg">
<path fill-rule="evenodd" clip-rule="evenodd" d="M42.3242 86.6439C30.279 86.0716 19.8764 81.7168 11.7758 72.721C3.86187 63.9367 0.327967 53.4726 0.887917 41.6897C1.44787 29.882 5.9399 19.841 14.6627 11.8281C23.5596 3.65349 34.3729 0.28161 46.3931 0.853958C53.884 1.20234 61.0887 3.08114 67.2855 7.41108C72.3126 10.9198 76.2447 14.1797 79.2684 19.5548C81.6326 23.7479 81.1598 28.7621 78.0614 32.4451C73.8555 37.4469 69.6373 42.4487 65.2821 47.3137C63.2414 49.5906 61.1758 51.8551 59.0107 54.0077C57.617 55.4012 55.8501 57.1431 54.1827 58.2007C50.4745 60.5399 45.3728 60.4777 41.3536 59.0468C36.3763 57.28 32.6806 53.4602 31.3367 48.3091C30.0675 43.4317 31.0007 38.1437 33.9996 34.0875C37.2224 29.7202 42.3117 27.5428 47.6872 27.7916C52.0051 27.9907 56.1363 29.9068 58.9609 33.2041L59.9564 34.3612L53.5356 41.7022L51.7189 39.5372C50.3128 37.5713 46.978 37.4593 44.8128 38.181C41.814 39.1764 40.719 41.8515 41.0674 44.8501C41.4158 47.9234 43.5809 49.7275 46.642 49.8644C48.6329 49.9639 50.375 49.1676 51.7064 47.6994C56.5344 42.3367 61.3376 36.9243 66.1407 31.5243C69.0897 28.2147 68.8782 23.1506 65.6803 20.0898C60.255 14.9014 53.3738 12.077 45.8954 11.7286C36.8989 11.3055 28.7734 13.682 22.1287 19.8659C15.6581 25.9004 12.4353 33.4031 12.0122 42.2123C11.5892 51.0091 14.1027 58.8104 19.9635 65.4173C24.6547 70.6929 31.175 74.0647 38.081 75.309C44.9995 76.5532 52.3286 75.6449 58.5876 72.3726C59.6328 71.8251 60.7403 71.0537 61.7109 70.3818C62.7437 69.6726 63.764 68.9509 64.7595 68.2168C66.6384 66.8357 69.6621 64.4717 69.1893 61.7717C68.7787 59.4574 65.7798 56.1353 64.3115 54.3436L63.4529 53.286L69.799 46.0446L78.0489 55.9487C81.1473 60.2662 81.5828 65.4546 78.4222 69.7472C74.8883 74.55 69.0649 79.3279 63.7391 82.0652C57.0446 85.5241 49.8648 86.9923 42.3242 86.6439Z" fill="#6F00FF"/>
<path fill-rule="evenodd" clip-rule="evenodd" d="M46.393 0.854004C53.8838 1.20239 61.0885 3.08119 67.2853 7.41112C72.3124 10.9199 76.2445 14.1798 79.2682 19.5549C81.6324 23.7479 81.1596 28.7622 78.0612 32.4451C73.8554 37.4469 69.6371 42.4488 65.2819 47.3137C63.2412 49.5907 61.1756 51.8552 59.0105 54.0077C57.6168 55.4013 55.8499 57.1432 54.1825 58.2008C50.4744 60.5399 45.3726 60.4777 41.3534 59.0469C36.3761 57.2801 32.6804 53.4603 31.3365 48.3091C30.0673 43.4317 31.0006 38.1437 33.9994 34.0875C37.2222 29.7203 42.3116 27.5428 47.6871 27.7917C52.0049 27.9908 56.1361 29.9069 58.9607 33.2041L59.9562 34.3612L53.5354 41.7022L51.7187 39.5373C50.3126 37.5714 46.9778 37.4594 44.8127 38.181C41.8138 39.1764 40.7188 41.8515 41.0672 44.8501C41.4156 47.9234 43.5808 49.7275 46.6418 49.8644C48.6328 49.964 50.3748 49.1676 51.7063 47.6994C56.5343 42.3368 61.3374 36.9244 66.1405 31.5244C69.0896 28.2147 68.878 23.1507 65.6801 20.0899C57.6666 1.23971 46.393 0.854004 46.393 0.854004Z" fill="#7FDEFF"/>
</svg>
