<svg width="18" height="16" viewBox="0 0 18 16" fill="none" xmlns="http://www.w3.org/2000/svg">
<path d="M17.7359 9.26562L16.7984 1.76563C16.7413 1.31241 16.5208 0.895624 16.1781 0.593537C15.8354 0.291451 15.3943 0.124843 14.9375 0.125H1.5C1.16848 0.125 0.850537 0.256696 0.616116 0.491117C0.381696 0.725537 0.25 1.04348 0.25 1.375V8.25C0.25 8.58152 0.381696 8.89946 0.616116 9.13388C0.850537 9.3683 1.16848 9.5 1.5 9.5H4.86406L7.81563 15.4047C7.86759 15.5085 7.94744 15.5958 8.04625 15.6568C8.14505 15.7178 8.25889 15.7501 8.375 15.75C9.2038 15.75 9.99866 15.4208 10.5847 14.8347C11.1708 14.2487 11.5 13.4538 11.5 12.625V11.375H15.875C16.1411 11.3751 16.4041 11.3186 16.6467 11.2091C16.8892 11.0997 17.1057 10.94 17.2817 10.7404C17.4577 10.5409 17.5892 10.3062 17.6676 10.0519C17.7459 9.79765 17.7692 9.52961 17.7359 9.26562ZM4.625 8.25H1.5V1.375H4.625V8.25ZM16.3438 9.91328C16.2855 9.98028 16.2135 10.0339 16.1325 10.0704C16.0516 10.107 15.9638 10.1256 15.875 10.125H10.875C10.7092 10.125 10.5503 10.1908 10.4331 10.3081C10.3158 10.4253 10.25 10.5842 10.25 10.75V12.625C10.2501 13.0585 10.1 13.4787 9.82526 13.814C9.5505 14.1493 9.16804 14.379 8.74297 14.4641L5.875 8.72734V1.375H14.9375C15.0898 1.37495 15.2368 1.43048 15.351 1.53118C15.4653 1.63187 15.5388 1.7708 15.5578 1.92188L16.4953 9.42188C16.507 9.50987 16.4995 9.59936 16.4734 9.68418C16.4472 9.76901 16.403 9.84717 16.3438 9.91328Z" fill="#071312" fill-opacity="0.6"/>
</svg>
