<svg width="130" height="37" viewBox="0 0 130 37" fill="none" xmlns="http://www.w3.org/2000/svg">
<path d="M9.98254 12.7844H6.16227V20.2048C6.16227 20.8438 6.30581 21.3022 6.59371 21.5808C6.8812 21.8591 7.30717 22.0135 7.87205 22.0447C8.43692 22.0758 9.14028 22.0704 9.98254 22.0291V25.0282C7.43555 25.3375 5.6075 25.1157 4.49837 24.3635C3.38925 23.6113 2.83447 22.2253 2.83447 20.2053V12.7849H0V9.56945H2.83447V6.23029L6.16227 5.24113V9.56945H9.98254V12.7849V12.7844ZM19.6511 9.16705C21.4173 9.16705 22.845 9.73403 23.9335 10.8676C25.022 12.0011 25.5663 13.5577 25.5663 15.536V25.0277H22.2385V15.8761C22.2385 14.7219 21.9308 13.8355 21.3141 13.2171C20.6979 12.5988 19.8561 12.2894 18.7878 12.2894C17.6172 12.2894 16.6722 12.6552 15.9533 13.3872C15.2344 14.1188 14.8749 15.2367 14.8749 16.7415V25.0273H11.5475V3.38529H14.8749V11.5474C15.8813 9.96049 17.4732 9.16663 19.6502 9.16663L19.6511 9.16705ZM31.0138 12.1661C31.8557 10.2492 33.4375 9.2908 35.7584 9.2908V12.9082C34.4851 12.8257 33.3756 13.1296 32.431 13.8203C31.4865 14.5111 31.0138 15.6496 31.0138 17.2369V25.0282H27.6864V9.56945H31.0138V12.1665V12.1661ZM39.9272 6.61627C39.5063 7.03888 39.0083 7.25018 38.4329 7.25018C37.858 7.25018 37.3596 7.03888 36.9387 6.61627C36.5178 6.19367 36.3073 5.69404 36.3073 5.11696C36.3073 4.53988 36.5127 4.03982 36.9235 3.61722C37.3344 3.19462 37.8373 2.98332 38.4329 2.98332C39.0286 2.98332 39.532 3.19462 39.9428 3.61722C40.3536 4.03982 40.559 4.53945 40.559 5.11696C40.559 5.69404 40.3486 6.19409 39.9276 6.61627H39.9272ZM36.7695 25.0277V9.56903H40.0968V25.0277H36.7695ZM50.5971 9.16705C52.3633 9.16705 53.7911 9.73403 54.8796 10.8676C55.9681 12.0011 56.5123 13.5577 56.5123 15.536V25.0277H53.1845V15.8761C53.1845 14.7219 52.8768 13.8355 52.2602 13.2171C51.6439 12.5988 50.8021 12.2894 49.7338 12.2894C48.5632 12.2894 47.6183 12.6552 46.8993 13.3872C46.1804 14.1188 45.8209 15.2367 45.8209 16.7415V25.0273H42.4936V9.56861H45.8209V11.5474C46.8274 9.96049 48.4193 9.16663 50.5963 9.16663L50.5971 9.16705ZM70.8333 3.38571H74.1607V25.0277H70.8333V22.8015C69.5802 24.5534 67.7833 25.4293 65.4417 25.4293C63.3262 25.4293 61.5187 24.6409 60.019 23.0641C58.5197 21.4874 57.77 19.5655 57.77 17.298C57.77 15.0103 58.5197 13.0829 60.019 11.5166C61.5183 9.94996 63.3257 9.16705 65.4417 9.16705C67.7833 9.16705 69.5802 10.0329 70.8333 11.7641V3.38529V3.38571ZM62.4839 20.8383C63.4082 21.7761 64.5687 22.245 65.9653 22.245C67.362 22.245 68.5224 21.7761 69.4468 20.8383C70.3711 19.9005 70.8333 18.7207 70.8333 17.2984C70.8333 15.8761 70.3711 14.6963 69.4468 13.7584C68.5224 12.8206 67.362 12.3517 65.9653 12.3517C64.5683 12.3517 63.4082 12.8206 62.4839 13.7584C61.5596 14.6963 61.0974 15.8761 61.0974 17.2984C61.0974 18.7207 61.5596 19.9005 62.4839 20.8383ZM76.5885 25.0277V2.45801H79.9159V25.0277H76.5885ZM84.932 18.7207C85.1782 19.8955 85.7435 20.7971 86.6266 21.4259C87.5097 22.0544 88.5881 22.3688 89.8614 22.3688C91.6276 22.3688 92.9526 21.7298 93.8361 20.4519L96.578 22.0598C95.0581 24.3063 92.8091 25.4297 89.8307 25.4297C87.3249 25.4297 85.302 24.662 83.761 23.1265C82.2209 21.5909 81.4506 19.6484 81.4506 17.2984C81.4506 14.9901 82.2107 13.0576 83.7307 11.5015C85.2506 9.94533 87.202 9.16705 89.5844 9.16705C91.8439 9.16705 93.6972 9.96049 95.1456 11.5478C96.5936 13.1346 97.3176 15.062 97.3176 17.3291C97.3176 17.6793 97.2763 18.1432 97.1942 18.7203H84.932V18.7207ZM84.9013 15.9998H93.9595C93.7334 14.7426 93.2149 13.7947 92.4037 13.1557C91.5922 12.5167 90.6426 12.1973 89.5541 12.1973C88.3217 12.1973 87.2946 12.5374 86.473 13.2176C85.6513 13.8978 85.1277 14.8255 84.9017 16.0003L84.9013 15.9998Z" fill="#20639B"/>
<path d="M56.7353 30.1091C57.5733 30.1091 58.288 30.4274 58.8794 31.0642C59.4708 31.7006 59.7667 32.4798 59.7667 33.4012C59.7667 34.3226 59.4708 35.1012 58.8794 35.7381C58.288 36.3745 57.5733 36.6932 56.7353 36.6932C55.6935 36.6932 54.9022 36.2327 54.3617 35.3113V36.5425H53.5859V27.7478H54.3617V31.4919C54.9022 30.5705 55.6935 30.11 56.7353 30.11V30.1091ZM55.0314 35.1661C55.478 35.6476 56.0264 35.8888 56.6763 35.8888C57.3267 35.8888 57.8751 35.648 58.3213 35.1661C58.7679 34.6845 58.991 34.0961 58.991 33.4012C58.991 32.7058 58.7679 32.1173 58.3213 31.6358C57.8747 31.1543 57.3267 30.9131 56.6763 30.9131C56.0264 30.9131 55.478 31.1539 55.0314 31.6358C54.5848 32.1173 54.3617 32.7058 54.3617 33.4012C54.3617 34.0965 54.5848 34.6845 55.0314 35.1661ZM64.7045 30.2598H65.4799V36.5416H64.7045V35.5617C64.2655 36.3156 63.6076 36.6923 62.7304 36.6923C62.0174 36.6923 61.4555 36.46 61.0442 35.9949C60.633 35.5302 60.4276 34.9038 60.4276 34.1167V30.2598H61.2033V34.1167C61.2033 34.6778 61.3422 35.1135 61.6205 35.4233C61.8987 35.7331 62.2922 35.888 62.8016 35.888C63.3656 35.888 63.8236 35.6973 64.1763 35.3163C64.5286 34.935 64.705 34.347 64.705 33.551V30.2594L64.7045 30.2598ZM67.2448 31.8888C67.2448 32.1695 67.3643 32.3914 67.6013 32.5568C67.8404 32.7201 68.1283 32.8544 68.465 32.9567C68.8018 33.0615 69.1385 33.1642 69.4757 33.2665C69.8124 33.3692 70.0965 33.5556 70.3276 33.8233C70.5608 34.0936 70.6761 34.4471 70.6761 34.8828C70.6761 35.4186 70.4783 35.8543 70.0826 36.1893C69.687 36.5244 69.176 36.6919 68.5492 36.6919C67.9852 36.6919 67.5053 36.5576 67.1097 36.2899C66.714 36.0218 66.4379 35.6741 66.2813 35.2469L66.9392 34.8323C67.0491 35.1589 67.2465 35.4165 67.5327 35.6051C67.8189 35.7937 68.1573 35.888 68.5492 35.888C68.9327 35.888 69.2543 35.8063 69.5127 35.643C69.7712 35.4797 69.9004 35.2263 69.9004 34.8828C69.9004 34.5978 69.7829 34.3739 69.5481 34.2064C69.3132 34.0389 69.0274 33.9029 68.6902 33.8002C68.3535 33.6975 68.0168 33.5952 67.6796 33.4925C67.3429 33.3898 67.0566 33.2058 66.8218 32.9419C66.5869 32.678 66.4695 32.3324 66.4695 31.9056C66.4695 31.3946 66.6593 30.9674 67.0394 30.6243C67.4191 30.2809 67.8993 30.1091 68.4789 30.1091C68.9567 30.1091 69.3759 30.2245 69.7362 30.4547C70.0965 30.685 70.363 30.9973 70.5351 31.3908L69.889 31.7928C69.6621 31.2065 69.192 30.9135 68.4789 30.9135C68.1422 30.9135 67.8522 30.9973 67.6093 31.1669C67.3664 31.3365 67.2448 31.5773 67.2448 31.8896V31.8888ZM72.2062 28.7521C72.0963 28.8695 71.9633 28.928 71.8063 28.928C71.6497 28.928 71.5163 28.8695 71.4069 28.7521C71.2974 28.6351 71.2423 28.4924 71.2423 28.3249C71.2423 28.1573 71.297 28.0151 71.4069 27.8976C71.5167 27.7802 71.6497 27.7217 71.8063 27.7217C71.9629 27.7217 72.0963 27.7802 72.2062 27.8976C72.3156 28.0151 72.3708 28.1573 72.3708 28.3249C72.3708 28.4924 72.316 28.6347 72.2062 28.7521ZM71.4186 36.5416V30.2598H72.1944V36.5416H71.4186ZM76.098 30.1091C76.811 30.1091 77.373 30.3415 77.7842 30.8066C78.1955 31.2713 78.4013 31.8976 78.4013 32.6848V36.5416H77.6255V32.6848C77.6255 32.1237 77.4866 31.688 77.2084 31.3782C76.9302 31.0684 76.5366 30.9135 76.0273 30.9135C75.4633 30.9135 75.0049 31.1042 74.6521 31.4851C74.2998 31.8665 74.1235 32.4545 74.1235 33.2505V36.5421H73.3477V30.2603H74.1235V31.2401C74.5621 30.4863 75.2204 30.1096 76.0976 30.1096L76.098 30.1091ZM82.1285 30.1091C82.9977 30.1091 83.7011 30.4379 84.2378 31.0954C84.7744 31.7528 85.0426 32.5294 85.0426 33.426C85.0426 33.5182 85.0346 33.6482 85.019 33.8153H79.8606C79.9389 34.4522 80.1915 34.9565 80.6183 35.3294C81.0451 35.7019 81.5721 35.8884 82.1988 35.8884C82.6454 35.8884 83.0314 35.7899 83.3564 35.5929C83.6813 35.3959 83.9263 35.1383 84.0904 34.8201L84.7719 35.2473C84.5135 35.6914 84.1607 36.0433 83.7141 36.3026C83.2675 36.5623 82.7586 36.6919 82.1866 36.6919C81.2623 36.6919 80.5101 36.3821 79.9305 35.7621C79.3509 35.1421 79.0609 34.355 79.0609 33.4003C79.0609 32.4621 79.3467 31.6792 79.9187 31.0507C80.4907 30.4227 81.2269 30.1083 82.1277 30.1083L82.1285 30.1091ZM82.1285 30.9131C81.5174 30.9131 81.0064 31.108 80.5951 31.4973C80.1839 31.8867 79.9389 32.3914 79.861 33.011H84.2441C84.1658 32.3493 83.9267 31.8341 83.5273 31.4658C83.1278 31.097 82.6614 30.9131 82.129 30.9131H82.1285ZM86.1614 31.8892C86.1614 32.17 86.2809 32.3918 86.5179 32.5572C86.757 32.7205 87.0449 32.8548 87.3816 32.9571C87.7188 33.0619 88.0555 33.1646 88.3922 33.2669C88.7294 33.3696 89.0131 33.5561 89.2442 33.8238C89.4774 34.094 89.5927 34.4476 89.5927 34.8832C89.5927 35.419 89.3949 35.8547 88.9992 36.1898C88.6035 36.5248 88.0925 36.6923 87.4658 36.6923C86.9018 36.6923 86.4219 36.5581 86.0262 36.2903C85.6306 36.0222 85.3545 35.6745 85.1979 35.2473L85.8558 34.8327C85.9656 35.1593 86.1635 35.4169 86.4493 35.6055C86.7355 35.7941 87.0743 35.8884 87.4658 35.8884C87.8497 35.8884 88.1708 35.8067 88.4293 35.6434C88.6877 35.4801 88.817 35.2267 88.817 34.8832C88.817 34.5983 88.6995 34.3743 88.4646 34.2068C88.2298 34.0393 87.9435 33.9033 87.6068 33.8006C87.2701 33.6979 86.9333 33.5956 86.5962 33.4929C86.2594 33.3902 85.9732 33.2063 85.7383 32.9424C85.5035 32.6784 85.386 32.3329 85.386 31.906C85.386 31.3951 85.5759 30.9678 85.956 30.6248C86.336 30.2813 86.8159 30.1096 87.3955 30.1096C87.8732 30.1096 88.2925 30.2249 88.6528 30.4551C89.0131 30.6854 89.2795 30.9977 89.4517 31.3913L88.8056 31.7932C88.5787 31.2069 88.1085 30.9139 87.3955 30.9139C87.0588 30.9139 86.7688 30.9977 86.5263 31.1673C86.2834 31.337 86.1618 31.5777 86.1618 31.8901L86.1614 31.8892ZM90.6522 31.8892C90.6522 32.17 90.7717 32.3918 91.0087 32.5572C91.2478 32.7205 91.5357 32.8548 91.8724 32.9571C92.2091 33.0619 92.5463 33.1646 92.883 33.2669C93.2198 33.3696 93.5039 33.5561 93.735 33.8238C93.9682 34.094 94.0835 34.4476 94.0835 34.8832C94.0835 35.419 93.8857 35.8547 93.49 36.1898C93.0948 36.5248 92.5833 36.6923 91.9566 36.6923C91.3926 36.6923 90.9127 36.5581 90.5171 36.2903C90.1214 36.0222 89.8453 35.6745 89.6887 35.2473L90.3466 34.8327C90.4564 35.1593 90.6543 35.4169 90.9401 35.6055C91.2263 35.7941 91.5647 35.8884 91.9566 35.8884C92.3401 35.8884 92.6616 35.8067 92.9201 35.6434C93.1785 35.4801 93.3082 35.2267 93.3082 34.8832C93.3082 34.5983 93.1907 34.3743 92.9559 34.2068C92.721 34.0393 92.4348 33.9033 92.098 33.8006C91.7613 33.6979 91.4245 33.5956 91.0874 33.4929C90.7507 33.3902 90.4644 33.2063 90.2296 32.9424C89.9947 32.6784 89.8772 32.3329 89.8772 31.906C89.8772 31.3951 90.0671 30.9678 90.4472 30.6248C90.8273 30.2813 91.3071 30.1096 91.8867 30.1096C92.3645 30.1096 92.7837 30.2249 93.144 30.4551C93.5043 30.6854 93.7708 30.9977 93.9429 31.3913L93.2964 31.7932C93.0695 31.2069 92.5993 30.9139 91.8863 30.9139C91.5496 30.9139 91.2595 30.9977 91.0167 31.1673C90.7738 31.337 90.6522 31.5777 90.6522 31.8901V31.8892Z" fill="#333333"/>
<path fill-rule="evenodd" clip-rule="evenodd" d="M103.496 15.5055L116.126 0.843209C116.476 0.437021 117.092 0.391141 117.498 0.740926L119.24 2.24066C119.632 2.57908 119.691 3.16416 119.374 3.57372C113.946 10.5745 115.059 20.0073 121.128 26.316C121.478 26.6784 121.493 27.2425 121.165 27.6247L119.743 29.2793C119.561 29.491 119.325 29.6051 119.046 29.6169C118.767 29.6283 118.522 29.5344 118.323 29.3387C114.573 25.6514 112.178 21.2974 111.518 15.1671C111.475 14.7731 111.218 14.46 110.839 14.3425C110.461 14.2247 110.072 14.3362 109.813 14.6363L106.693 18.2588C106.344 18.665 105.727 18.7108 105.321 18.3611L103.599 16.8777C103.193 16.528 103.147 15.9117 103.496 15.506V15.5055ZM123.115 11.2206L126.301 13.9646C126.706 14.3143 127.323 14.2685 127.672 13.8623L129.192 12.0982C129.542 11.6924 129.496 11.0758 129.09 10.7264L121.52 4.20594C121.301 4.01695 121.038 3.9395 120.751 3.97949C120.464 4.01947 120.232 4.16595 120.073 4.40798C115.249 11.7274 115.758 19.0013 121.867 25.1821C122.065 25.3824 122.311 25.4801 122.593 25.4704C122.875 25.4607 123.114 25.3458 123.297 25.1316L124.668 23.5333C125.004 23.1423 124.977 22.5597 124.606 22.2011C121.516 19.2088 120.57 15.6992 121.535 11.7282C121.617 11.3898 121.851 11.1381 122.182 11.032C122.514 10.9251 122.85 10.9933 123.115 11.221V11.2206Z" fill="#FE9800"/>
</svg>
