<svg width="21" height="19" viewBox="0 0 21 19" fill="none" xmlns="http://www.w3.org/2000/svg">
<path d="M20.0318 4.47929L17.2286 7.28242C16.6624 13.8468 11.1265 18.9487 4.50115 18.9487C3.13989 18.9487 2.01771 18.733 1.16552 18.3074C0.478333 17.9634 0.197083 17.5949 0.12677 17.4899C0.0640744 17.3959 0.023437 17.2889 0.00789473 17.177C-0.00764753 17.065 0.00230729 16.951 0.0370149 16.8435C0.0717226 16.7359 0.130286 16.6376 0.208329 16.5559C0.286372 16.4742 0.381877 16.4111 0.487708 16.3715C0.512083 16.3621 2.76021 15.4987 4.18802 13.8552C3.39619 13.2042 2.70497 12.4397 2.13677 11.5865C0.97427 9.86054 -0.32698 6.86242 0.0742701 2.3821C0.0869885 2.23974 0.140122 2.10398 0.227413 1.9908C0.314704 1.87762 0.432518 1.79174 0.566981 1.74327C0.701443 1.69481 0.846955 1.68577 0.98638 1.71724C1.12581 1.7487 1.25334 1.81934 1.35396 1.92085C1.38677 1.95367 4.47396 5.02398 8.24833 6.0196V5.44867C8.2469 4.84997 8.36527 4.25704 8.59647 3.7048C8.82767 3.15255 9.16704 2.65214 9.59458 2.23304C10.0098 1.81841 10.5039 1.49114 11.0476 1.27055C11.5914 1.04996 12.1738 0.940512 12.7605 0.948666C13.5476 0.95643 14.3193 1.16772 15.0006 1.56198C15.6818 1.95625 16.2495 2.52008 16.6483 3.19867H19.5011C19.6496 3.19855 19.7947 3.24247 19.9181 3.32488C20.0416 3.40728 20.1378 3.52446 20.1946 3.66157C20.2514 3.79869 20.2663 3.94958 20.2373 4.09515C20.2083 4.24071 20.1368 4.3744 20.0318 4.47929Z" fill="#065DA7"/>
</svg>
