<svg width="24" height="25" viewBox="0 0 24 25" fill="none" xmlns="http://www.w3.org/2000/svg">
<g clip-path="url(#clip0_13413_4308)">
<path d="M22.1623 5.71061C21.3989 6.04831 20.5893 6.27009 19.7603 6.36861C20.634 5.84605 21.288 5.02363 21.6003 4.05461C20.7803 4.54261 19.8813 4.88461 18.9443 5.06961C18.3149 4.39619 17.4807 3.94958 16.5713 3.7992C15.6618 3.64882 14.7282 3.80311 13.9156 4.23807C13.1029 4.67303 12.4567 5.3643 12.0774 6.20441C11.6981 7.04452 11.607 7.98639 11.8183 8.88361C10.1554 8.80027 8.52863 8.36814 7.04358 7.61528C5.55854 6.86242 4.24842 5.80566 3.1983 4.51361C2.82659 5.15206 2.63125 5.87784 2.6323 6.61661C2.6323 8.06661 3.3703 9.34761 4.4923 10.0976C3.82831 10.0767 3.17893 9.8974 2.5983 9.57461V9.62661C2.5985 10.5923 2.93267 11.5282 3.54414 12.2757C4.15562 13.0231 5.00678 13.5361 5.9533 13.7276C5.33691 13.8947 4.6906 13.9193 4.0633 13.7996C4.33016 14.6308 4.8503 15.3578 5.55089 15.8787C6.25147 16.3996 7.09742 16.6884 7.9703 16.7046C7.10278 17.3859 6.10947 17.8896 5.04718 18.1868C3.98488 18.484 2.87442 18.5689 1.7793 18.4366C3.69099 19.666 5.91639 20.3187 8.1893 20.3166C15.8823 20.3166 20.0893 13.9436 20.0893 8.41661C20.0893 8.23661 20.0843 8.05461 20.0763 7.87661C20.8952 7.28478 21.6019 6.55163 22.1633 5.71161L22.1623 5.71061Z" fill="#A3A4A5"/>
</g>
<defs>
<clipPath id="clip0_13413_4308">
<rect width="24" height="24" fill="white" transform="translate(0 0.0546875)"/>
</clipPath>
</defs>
</svg>
